solid OpenSCAD_Model
  facet normal -1 0 0
    outer loop
      vertex -0.625 -33.625 -7.27
      vertex -0.625 0.625 -0.02
      vertex -0.625 0.625 -7.27
    endloop
  endfacet
  facet normal -1 -0 0
    outer loop
      vertex -0.625 0.625 -0.02
      vertex -0.625 -33.625 -7.27
      vertex -0.625 -33.625 -0.02
    endloop
  endfacet
  facet normal 0 0 -1
    outer loop
      vertex 33.625 -33.625 -7.27
      vertex 32.75 -26 -7.27
      vertex 33.625 0.625 -7.27
    endloop
  endfacet
  facet normal 0 0 -1
    outer loop
      vertex 33.625 -33.625 -7.27
      vertex 0.25 -26 -7.27
      vertex 32.75 -26 -7.27
    endloop
  endfacet
  facet normal -0 0 -1
    outer loop
      vertex 0.25 -26 -7.27
      vertex -0.625 -33.625 -7.27
      vertex 0.25 -7 -7.27
    endloop
  endfacet
  facet normal 0 0 -1
    outer loop
      vertex -0.625 -33.625 -7.27
      vertex 0.25 -26 -7.27
      vertex 33.625 -33.625 -7.27
    endloop
  endfacet
  facet normal 0 0 -1
    outer loop
      vertex 32.75 -7 -7.27
      vertex 33.625 0.625 -7.27
      vertex 32.75 -26 -7.27
    endloop
  endfacet
  facet normal 0 0 -1
    outer loop
      vertex 32.75 -7 -7.27
      vertex 21.375 0.625 -7.27
      vertex 33.625 0.625 -7.27
    endloop
  endfacet
  facet normal 0 0 -1
    outer loop
      vertex 21.375 0.625 -7.27
      vertex 11.625 0.625 -7.27
      vertex 21.375 16.605 -7.27
    endloop
  endfacet
  facet normal 0 0 -1
    outer loop
      vertex 32.75 -7 -7.27
      vertex 11.625 0.625 -7.27
      vertex 21.375 0.625 -7.27
    endloop
  endfacet
  facet normal 0 0 -1
    outer loop
      vertex 0.25 -7 -7.27
      vertex 11.625 0.625 -7.27
      vertex 32.75 -7 -7.27
    endloop
  endfacet
  facet normal 0 0 -1
    outer loop
      vertex 0.25 -7 -7.27
      vertex -0.625 0.625 -7.27
      vertex 11.625 0.625 -7.27
    endloop
  endfacet
  facet normal 0 0 -1
    outer loop
      vertex -0.625 0.625 -7.27
      vertex 0.25 -7 -7.27
      vertex -0.625 -33.625 -7.27
    endloop
  endfacet
  facet normal -0 0 -1
    outer loop
      vertex 21.375 16.605 -7.27
      vertex 11.625 0.625 -7.27
      vertex 11.625 16.605 -7.27
    endloop
  endfacet
  facet normal 1 -0 0
    outer loop
      vertex 33.625 -33.625 -0.02
      vertex 33.625 0.625 -7.27
      vertex 33.625 0.625 -0.02
    endloop
  endfacet
  facet normal 1 0 0
    outer loop
      vertex 33.625 0.625 -7.27
      vertex 33.625 -33.625 -0.02
      vertex 33.625 -33.625 -7.27
    endloop
  endfacet
  facet normal 0 0 1
    outer loop
      vertex 21.375 16.605 -0.02
      vertex 20.75 15.98 -0.02
      vertex 21.375 0.625 -0.02
    endloop
  endfacet
  facet normal 0 0 1
    outer loop
      vertex 21.375 16.605 -0.02
      vertex 12.25 15.98 -0.02
      vertex 20.75 15.98 -0.02
    endloop
  endfacet
  facet normal -0 0 1
    outer loop
      vertex 11.625 16.605 -0.02
      vertex 12.25 15.98 -0.02
      vertex 21.375 16.605 -0.02
    endloop
  endfacet
  facet normal 0 0 1
    outer loop
      vertex 11.625 0.625 -0.02
      vertex 12.25 15.98 -0.02
      vertex 11.625 16.605 -0.02
    endloop
  endfacet
  facet normal 0 0 1
    outer loop
      vertex 12.25 15.98 -0.02
      vertex 11.625 0.625 -0.02
      vertex 12.25 -2.44929e-18 -0.02
    endloop
  endfacet
  facet normal 0 0 1
    outer loop
      vertex 11.625 0.625 -0.02
      vertex 0 -2.44929e-18 -0.02
      vertex 12.25 -2.44929e-18 -0.02
    endloop
  endfacet
  facet normal 0 0 1
    outer loop
      vertex 0 -2.44929e-18 -0.02
      vertex -0.625 0.625 -0.02
      vertex 0 -33 -0.02
    endloop
  endfacet
  facet normal -0 0 1
    outer loop
      vertex -0.625 0.625 -0.02
      vertex 0 -2.44929e-18 -0.02
      vertex 11.625 0.625 -0.02
    endloop
  endfacet
  facet normal 0 0 1
    outer loop
      vertex 33.625 0.625 -0.02
      vertex 33 -2.44929e-18 -0.02
      vertex 33.625 -33.625 -0.02
    endloop
  endfacet
  facet normal -0 0 1
    outer loop
      vertex 21.375 0.625 -0.02
      vertex 33 -2.44929e-18 -0.02
      vertex 33.625 0.625 -0.02
    endloop
  endfacet
  facet normal 0 0 1
    outer loop
      vertex 21.375 0.625 -0.02
      vertex 20.75 -2.44929e-18 -0.02
      vertex 33 -2.44929e-18 -0.02
    endloop
  endfacet
  facet normal 0 0 1
    outer loop
      vertex 20.75 -2.44929e-18 -0.02
      vertex 21.375 0.625 -0.02
      vertex 20.75 15.98 -0.02
    endloop
  endfacet
  facet normal -0 0 1
    outer loop
      vertex 33 -33 -0.02
      vertex 33.625 -33.625 -0.02
      vertex 33 -2.44929e-18 -0.02
    endloop
  endfacet
  facet normal -0 0 1
    outer loop
      vertex 0 -33 -0.02
      vertex 33.625 -33.625 -0.02
      vertex 33 -33 -0.02
    endloop
  endfacet
  facet normal 0 0 1
    outer loop
      vertex 0 -33 -0.02
      vertex -0.625 -33.625 -0.02
      vertex 33.625 -33.625 -0.02
    endloop
  endfacet
  facet normal 0 0 1
    outer loop
      vertex -0.625 -33.625 -0.02
      vertex 0 -33 -0.02
      vertex -0.625 0.625 -0.02
    endloop
  endfacet
  facet normal 0 1 -0
    outer loop
      vertex 11.625 0.625 -7.27
      vertex -0.625 0.625 -0.02
      vertex 11.625 0.625 -0.02
    endloop
  endfacet
  facet normal 0 1 0
    outer loop
      vertex -0.625 0.625 -0.02
      vertex 11.625 0.625 -7.27
      vertex -0.625 0.625 -7.27
    endloop
  endfacet
  facet normal 0 1 -0
    outer loop
      vertex 33.625 0.625 -7.27
      vertex 21.375 0.625 -0.02
      vertex 33.625 0.625 -0.02
    endloop
  endfacet
  facet normal 0 1 0
    outer loop
      vertex 21.375 0.625 -0.02
      vertex 33.625 0.625 -7.27
      vertex 21.375 0.625 -7.27
    endloop
  endfacet
  facet normal 0 -1 0
    outer loop
      vertex -0.625 -33.625 -7.27
      vertex 33.625 -33.625 -0.02
      vertex -0.625 -33.625 -0.02
    endloop
  endfacet
  facet normal 0 -1 -0
    outer loop
      vertex 33.625 -33.625 -0.02
      vertex -0.625 -33.625 -7.27
      vertex 33.625 -33.625 -7.27
    endloop
  endfacet
  facet normal -1 0 0
    outer loop
      vertex 11.625 0.625 -7.27
      vertex 11.625 16.605 -0.02
      vertex 11.625 16.605 -7.27
    endloop
  endfacet
  facet normal -1 -0 0
    outer loop
      vertex 11.625 16.605 -0.02
      vertex 11.625 0.625 -7.27
      vertex 11.625 0.625 -0.02
    endloop
  endfacet
  facet normal 1 -0 0
    outer loop
      vertex 21.375 0.625 -0.02
      vertex 21.375 16.605 -7.27
      vertex 21.375 16.605 -0.02
    endloop
  endfacet
  facet normal 1 0 0
    outer loop
      vertex 21.375 16.605 -7.27
      vertex 21.375 0.625 -0.02
      vertex 21.375 0.625 -7.27
    endloop
  endfacet
  facet normal 0 1 -0
    outer loop
      vertex 21.375 16.605 -7.27
      vertex 11.625 16.605 -0.02
      vertex 21.375 16.605 -0.02
    endloop
  endfacet
  facet normal 0 1 0
    outer loop
      vertex 11.625 16.605 -0.02
      vertex 21.375 16.605 -7.27
      vertex 11.625 16.605 -7.27
    endloop
  endfacet
  facet normal 1 -0 0
    outer loop
      vertex 0 -33 -0.02
      vertex 0 -7.34788e-16 -6
      vertex 0 -2.44929e-18 -0.02
    endloop
  endfacet
  facet normal 1 0 0
    outer loop
      vertex 0 -7.34788e-16 -6
      vertex 0 -33 -0.02
      vertex 0 -33 -6
    endloop
  endfacet
  facet normal 0 0 1
    outer loop
      vertex 20.75 15.98 -6
      vertex 12.25 15.98 -6
      vertex 20.75 -7.34788e-16 -6
    endloop
  endfacet
  facet normal 0 0 1
    outer loop
      vertex 33 -7.34788e-16 -6
      vertex 32.75 -7 -6
      vertex 33 -33 -6
    endloop
  endfacet
  facet normal -0 0 1
    outer loop
      vertex 20.75 -7.34788e-16 -6
      vertex 32.75 -7 -6
      vertex 33 -7.34788e-16 -6
    endloop
  endfacet
  facet normal 0 0 1
    outer loop
      vertex 12.25 -7.34788e-16 -6
      vertex 20.75 -7.34788e-16 -6
      vertex 12.25 15.98 -6
    endloop
  endfacet
  facet normal -0 0 1
    outer loop
      vertex 12.25 -7.34788e-16 -6
      vertex 32.75 -7 -6
      vertex 20.75 -7.34788e-16 -6
    endloop
  endfacet
  facet normal 0 0 1
    outer loop
      vertex 12.25 -7.34788e-16 -6
      vertex 0.25 -7 -6
      vertex 32.75 -7 -6
    endloop
  endfacet
  facet normal 0 0 1
    outer loop
      vertex 0.25 -7 -6
      vertex 0 -7.34788e-16 -6
      vertex 0.25 -26 -6
    endloop
  endfacet
  facet normal -0 0 1
    outer loop
      vertex 0 -7.34788e-16 -6
      vertex 0.25 -7 -6
      vertex 12.25 -7.34788e-16 -6
    endloop
  endfacet
  facet normal -0 0 1
    outer loop
      vertex 32.75 -26 -6
      vertex 33 -33 -6
      vertex 32.75 -7 -6
    endloop
  endfacet
  facet normal -0 0 1
    outer loop
      vertex 0.25 -26 -6
      vertex 33 -33 -6
      vertex 32.75 -26 -6
    endloop
  endfacet
  facet normal 0 0 1
    outer loop
      vertex 0.25 -26 -6
      vertex 0 -33 -6
      vertex 33 -33 -6
    endloop
  endfacet
  facet normal 0 0 1
    outer loop
      vertex 0 -33 -6
      vertex 0.25 -26 -6
      vertex 0 -7.34788e-16 -6
    endloop
  endfacet
  facet normal -1 0 0
    outer loop
      vertex 33 -33 -6
      vertex 33 -2.44929e-18 -0.02
      vertex 33 -7.34788e-16 -6
    endloop
  endfacet
  facet normal -1 -0 0
    outer loop
      vertex 33 -2.44929e-18 -0.02
      vertex 33 -33 -6
      vertex 33 -33 -0.02
    endloop
  endfacet
  facet normal 0 1 -0
    outer loop
      vertex 33 -33 -6
      vertex 0 -33 -0.02
      vertex 33 -33 -0.02
    endloop
  endfacet
  facet normal 0 1 0
    outer loop
      vertex 0 -33 -0.02
      vertex 33 -33 -6
      vertex 0 -33 -6
    endloop
  endfacet
  facet normal 0 -1 1.22465e-16
    outer loop
      vertex 0 -7.34788e-16 -6
      vertex 12.25 -2.44929e-18 -0.02
      vertex 0 -2.44929e-18 -0.02
    endloop
  endfacet
  facet normal 0 -1 1.22465e-16
    outer loop
      vertex 12.25 -2.44929e-18 -0.02
      vertex 0 -7.34788e-16 -6
      vertex 12.25 -7.34788e-16 -6
    endloop
  endfacet
  facet normal 0 -1 1.22465e-16
    outer loop
      vertex 20.75 -7.34788e-16 -6
      vertex 33 -2.44929e-18 -0.02
      vertex 20.75 -2.44929e-18 -0.02
    endloop
  endfacet
  facet normal 0 -1 1.22465e-16
    outer loop
      vertex 33 -2.44929e-18 -0.02
      vertex 20.75 -7.34788e-16 -6
      vertex 33 -7.34788e-16 -6
    endloop
  endfacet
  facet normal 1 -0 0
    outer loop
      vertex 12.25 -2.44929e-18 -0.02
      vertex 12.25 15.98 -6
      vertex 12.25 15.98 -0.02
    endloop
  endfacet
  facet normal 1 0 0
    outer loop
      vertex 12.25 15.98 -6
      vertex 12.25 -2.44929e-18 -0.02
      vertex 12.25 -7.34788e-16 -6
    endloop
  endfacet
  facet normal -1 0 0
    outer loop
      vertex 20.75 15.98 -6
      vertex 20.75 -2.44929e-18 -0.02
      vertex 20.75 15.98 -0.02
    endloop
  endfacet
  facet normal -1 0 -0
    outer loop
      vertex 20.75 -2.44929e-18 -0.02
      vertex 20.75 15.98 -6
      vertex 20.75 -7.34788e-16 -6
    endloop
  endfacet
  facet normal 0 -1 0
    outer loop
      vertex 12.25 15.98 -6
      vertex 20.75 15.98 -0.02
      vertex 12.25 15.98 -0.02
    endloop
  endfacet
  facet normal 0 -1 -0
    outer loop
      vertex 20.75 15.98 -0.02
      vertex 12.25 15.98 -6
      vertex 20.75 15.98 -6
    endloop
  endfacet
  facet normal 1 -0 0
    outer loop
      vertex 0.25 -26 -6
      vertex 0.25 -7 -7.27
      vertex 0.25 -7 -6
    endloop
  endfacet
  facet normal 1 0 0
    outer loop
      vertex 0.25 -7 -7.27
      vertex 0.25 -26 -6
      vertex 0.25 -26 -7.27
    endloop
  endfacet
  facet normal -1 0 0
    outer loop
      vertex 32.75 -26 -7.27
      vertex 32.75 -7 -6
      vertex 32.75 -7 -7.27
    endloop
  endfacet
  facet normal -1 -0 0
    outer loop
      vertex 32.75 -7 -6
      vertex 32.75 -26 -7.27
      vertex 32.75 -26 -6
    endloop
  endfacet
  facet normal 0 1 -0
    outer loop
      vertex 32.75 -26 -7.27
      vertex 0.25 -26 -6
      vertex 32.75 -26 -6
    endloop
  endfacet
  facet normal 0 1 0
    outer loop
      vertex 0.25 -26 -6
      vertex 32.75 -26 -7.27
      vertex 0.25 -26 -7.27
    endloop
  endfacet
  facet normal 0 -1 0
    outer loop
      vertex 0.25 -7 -7.27
      vertex 32.75 -7 -6
      vertex 0.25 -7 -6
    endloop
  endfacet
  facet normal 0 -1 -0
    outer loop
      vertex 32.75 -7 -6
      vertex 0.25 -7 -7.27
      vertex 32.75 -7 -7.27
    endloop
  endfacet
endsolid OpenSCAD_Model
