solid OpenSCAD_Model
  facet normal -1 0 0
    outer loop
      vertex 0 0 0
      vertex 0 165.2 3.175
      vertex 0 165.2 0
    endloop
  endfacet
  facet normal -1 -0 0
    outer loop
      vertex 0 165.2 3.175
      vertex 0 0 0
      vertex 0 0 3.175
    endloop
  endfacet
  facet normal 0 0 1
    outer loop
      vertex 114.4 165.2 3.175
      vertex 108.05 158.85 3.175
      vertex 114.4 0 3.175
    endloop
  endfacet
  facet normal 0 0 1
    outer loop
      vertex 114.4 165.2 3.175
      vertex 6.35 158.85 3.175
      vertex 108.05 158.85 3.175
    endloop
  endfacet
  facet normal 0 0 1
    outer loop
      vertex 6.35 158.85 3.175
      vertex 0 165.2 3.175
      vertex 6.35 6.35 3.175
    endloop
  endfacet
  facet normal -0 0 1
    outer loop
      vertex 0 165.2 3.175
      vertex 6.35 158.85 3.175
      vertex 114.4 165.2 3.175
    endloop
  endfacet
  facet normal -0 0 1
    outer loop
      vertex 108.05 6.35 3.175
      vertex 114.4 0 3.175
      vertex 108.05 158.85 3.175
    endloop
  endfacet
  facet normal -0 0 1
    outer loop
      vertex 6.35 6.35 3.175
      vertex 114.4 0 3.175
      vertex 108.05 6.35 3.175
    endloop
  endfacet
  facet normal 0 0 1
    outer loop
      vertex 6.35 6.35 3.175
      vertex 0 0 3.175
      vertex 114.4 0 3.175
    endloop
  endfacet
  facet normal 0 0 1
    outer loop
      vertex 0 0 3.175
      vertex 6.35 6.35 3.175
      vertex 0 165.2 3.175
    endloop
  endfacet
  facet normal 1 -0 0
    outer loop
      vertex 114.4 0 3.175
      vertex 114.4 165.2 0
      vertex 114.4 165.2 3.175
    endloop
  endfacet
  facet normal 1 0 0
    outer loop
      vertex 114.4 165.2 0
      vertex 114.4 0 3.175
      vertex 114.4 0 0
    endloop
  endfacet
  facet normal 0 1 -0
    outer loop
      vertex 114.4 165.2 0
      vertex 0 165.2 3.175
      vertex 114.4 165.2 3.175
    endloop
  endfacet
  facet normal 0 1 0
    outer loop
      vertex 0 165.2 3.175
      vertex 114.4 165.2 0
      vertex 0 165.2 0
    endloop
  endfacet
  facet normal 0 0 -1
    outer loop
      vertex 114.4 0 0
      vertex 104.875 9.525 0
      vertex 114.4 165.2 0
    endloop
  endfacet
  facet normal 0 0 -1
    outer loop
      vertex 114.4 0 0
      vertex 9.525 9.525 0
      vertex 104.875 9.525 0
    endloop
  endfacet
  facet normal -0 0 -1
    outer loop
      vertex 9.525 9.525 0
      vertex 0 0 0
      vertex 9.525 155.675 0
    endloop
  endfacet
  facet normal 0 0 -1
    outer loop
      vertex 0 0 0
      vertex 9.525 9.525 0
      vertex 114.4 0 0
    endloop
  endfacet
  facet normal 0 0 -1
    outer loop
      vertex 104.875 155.675 0
      vertex 114.4 165.2 0
      vertex 104.875 9.525 0
    endloop
  endfacet
  facet normal 0 0 -1
    outer loop
      vertex 9.525 155.675 0
      vertex 114.4 165.2 0
      vertex 104.875 155.675 0
    endloop
  endfacet
  facet normal 0 0 -1
    outer loop
      vertex 9.525 155.675 0
      vertex 0 165.2 0
      vertex 114.4 165.2 0
    endloop
  endfacet
  facet normal 0 0 -1
    outer loop
      vertex 0 165.2 0
      vertex 9.525 155.675 0
      vertex 0 0 0
    endloop
  endfacet
  facet normal 0 -1 0
    outer loop
      vertex 0 0 0
      vertex 114.4 0 3.175
      vertex 0 0 3.175
    endloop
  endfacet
  facet normal 0 -1 -0
    outer loop
      vertex 114.4 0 3.175
      vertex 0 0 0
      vertex 114.4 0 0
    endloop
  endfacet
  facet normal 1 -0 0
    outer loop
      vertex 9.525 9.525 2.185
      vertex 9.525 155.675 0
      vertex 9.525 155.675 2.185
    endloop
  endfacet
  facet normal 1 0 0
    outer loop
      vertex 9.525 155.675 0
      vertex 9.525 9.525 2.185
      vertex 9.525 9.525 0
    endloop
  endfacet
  facet normal -1 0 0
    outer loop
      vertex 104.875 9.525 0
      vertex 104.875 155.675 2.185
      vertex 104.875 155.675 0
    endloop
  endfacet
  facet normal -1 -0 0
    outer loop
      vertex 104.875 155.675 2.185
      vertex 104.875 9.525 0
      vertex 104.875 9.525 2.185
    endloop
  endfacet
  facet normal 0 -1 0
    outer loop
      vertex 9.525 155.675 0
      vertex 104.875 155.675 2.185
      vertex 9.525 155.675 2.185
    endloop
  endfacet
  facet normal 0 -1 -0
    outer loop
      vertex 104.875 155.675 2.185
      vertex 9.525 155.675 0
      vertex 104.875 155.675 0
    endloop
  endfacet
  facet normal 0 1 -0
    outer loop
      vertex 104.875 9.525 0
      vertex 9.525 9.525 2.185
      vertex 104.875 9.525 2.185
    endloop
  endfacet
  facet normal 0 1 0
    outer loop
      vertex 9.525 9.525 2.185
      vertex 104.875 9.525 0
      vertex 9.525 9.525 0
    endloop
  endfacet
  facet normal 1 -0 0
    outer loop
      vertex 6.35 6.35 3.175
      vertex 6.35 158.85 2.185
      vertex 6.35 158.85 3.175
    endloop
  endfacet
  facet normal 1 0 0
    outer loop
      vertex 6.35 158.85 2.185
      vertex 6.35 6.35 3.175
      vertex 6.35 6.35 2.185
    endloop
  endfacet
  facet normal -1 0 0
    outer loop
      vertex 108.05 6.35 2.185
      vertex 108.05 158.85 3.175
      vertex 108.05 158.85 2.185
    endloop
  endfacet
  facet normal -1 -0 0
    outer loop
      vertex 108.05 158.85 3.175
      vertex 108.05 6.35 2.185
      vertex 108.05 6.35 3.175
    endloop
  endfacet
  facet normal 0 0 1
    outer loop
      vertex 108.05 158.85 2.185
      vertex 104.875 155.675 2.185
      vertex 108.05 6.35 2.185
    endloop
  endfacet
  facet normal 0 0 1
    outer loop
      vertex 108.05 158.85 2.185
      vertex 9.525 155.675 2.185
      vertex 104.875 155.675 2.185
    endloop
  endfacet
  facet normal 0 0 1
    outer loop
      vertex 9.525 155.675 2.185
      vertex 6.35 158.85 2.185
      vertex 9.525 9.525 2.185
    endloop
  endfacet
  facet normal -0 0 1
    outer loop
      vertex 6.35 158.85 2.185
      vertex 9.525 155.675 2.185
      vertex 108.05 158.85 2.185
    endloop
  endfacet
  facet normal -0 0 1
    outer loop
      vertex 104.875 9.525 2.185
      vertex 108.05 6.35 2.185
      vertex 104.875 155.675 2.185
    endloop
  endfacet
  facet normal -0 0 1
    outer loop
      vertex 9.525 9.525 2.185
      vertex 108.05 6.35 2.185
      vertex 104.875 9.525 2.185
    endloop
  endfacet
  facet normal 0 0 1
    outer loop
      vertex 9.525 9.525 2.185
      vertex 6.35 6.35 2.185
      vertex 108.05 6.35 2.185
    endloop
  endfacet
  facet normal 0 0 1
    outer loop
      vertex 6.35 6.35 2.185
      vertex 9.525 9.525 2.185
      vertex 6.35 158.85 2.185
    endloop
  endfacet
  facet normal 0 1 -0
    outer loop
      vertex 108.05 6.35 2.185
      vertex 6.35 6.35 3.175
      vertex 108.05 6.35 3.175
    endloop
  endfacet
  facet normal 0 1 0
    outer loop
      vertex 6.35 6.35 3.175
      vertex 108.05 6.35 2.185
      vertex 6.35 6.35 2.185
    endloop
  endfacet
  facet normal 0 -1 0
    outer loop
      vertex 6.35 158.85 2.185
      vertex 108.05 158.85 3.175
      vertex 6.35 158.85 3.175
    endloop
  endfacet
  facet normal 0 -1 -0
    outer loop
      vertex 108.05 158.85 3.175
      vertex 6.35 158.85 2.185
      vertex 108.05 158.85 2.185
    endloop
  endfacet
  facet normal -1 0 0
    outer loop
      vertex 3.175 3.175 3.175
      vertex 3.175 162.025 4.175
      vertex 3.175 162.025 3.175
    endloop
  endfacet
  facet normal -1 -0 0
    outer loop
      vertex 3.175 162.025 4.175
      vertex 3.175 3.175 3.175
      vertex 3.175 3.175 4.175
    endloop
  endfacet
  facet normal 0 0 1
    outer loop
      vertex 111.225 162.025 4.175
      vertex 108.05 158.85 4.175
      vertex 111.225 3.175 4.175
    endloop
  endfacet
  facet normal 0 0 1
    outer loop
      vertex 111.225 162.025 4.175
      vertex 6.35 158.85 4.175
      vertex 108.05 158.85 4.175
    endloop
  endfacet
  facet normal 0 0 1
    outer loop
      vertex 6.35 158.85 4.175
      vertex 3.175 162.025 4.175
      vertex 6.35 6.35 4.175
    endloop
  endfacet
  facet normal -0 0 1
    outer loop
      vertex 3.175 162.025 4.175
      vertex 6.35 158.85 4.175
      vertex 111.225 162.025 4.175
    endloop
  endfacet
  facet normal -0 0 1
    outer loop
      vertex 108.05 6.35 4.175
      vertex 111.225 3.175 4.175
      vertex 108.05 158.85 4.175
    endloop
  endfacet
  facet normal -0 0 1
    outer loop
      vertex 6.35 6.35 4.175
      vertex 111.225 3.175 4.175
      vertex 108.05 6.35 4.175
    endloop
  endfacet
  facet normal 0 0 1
    outer loop
      vertex 6.35 6.35 4.175
      vertex 3.175 3.175 4.175
      vertex 111.225 3.175 4.175
    endloop
  endfacet
  facet normal 0 0 1
    outer loop
      vertex 3.175 3.175 4.175
      vertex 6.35 6.35 4.175
      vertex 3.175 162.025 4.175
    endloop
  endfacet
  facet normal 1 -0 0
    outer loop
      vertex 111.225 3.175 4.175
      vertex 111.225 162.025 3.175
      vertex 111.225 162.025 4.175
    endloop
  endfacet
  facet normal 1 0 0
    outer loop
      vertex 111.225 162.025 3.175
      vertex 111.225 3.175 4.175
      vertex 111.225 3.175 3.175
    endloop
  endfacet
  facet normal 0 1 -0
    outer loop
      vertex 111.225 162.025 3.175
      vertex 3.175 162.025 4.175
      vertex 111.225 162.025 4.175
    endloop
  endfacet
  facet normal 0 1 0
    outer loop
      vertex 3.175 162.025 4.175
      vertex 111.225 162.025 3.175
      vertex 3.175 162.025 3.175
    endloop
  endfacet
  facet normal 0 0 -1
    outer loop
      vertex 111.225 3.175 3.175
      vertex 108.05 6.35 3.175
      vertex 111.225 162.025 3.175
    endloop
  endfacet
  facet normal 0 0 -1
    outer loop
      vertex 111.225 3.175 3.175
      vertex 6.35 6.35 3.175
      vertex 108.05 6.35 3.175
    endloop
  endfacet
  facet normal -0 0 -1
    outer loop
      vertex 6.35 6.35 3.175
      vertex 3.175 3.175 3.175
      vertex 6.35 158.85 3.175
    endloop
  endfacet
  facet normal 0 0 -1
    outer loop
      vertex 3.175 3.175 3.175
      vertex 6.35 6.35 3.175
      vertex 111.225 3.175 3.175
    endloop
  endfacet
  facet normal 0 0 -1
    outer loop
      vertex 108.05 158.85 3.175
      vertex 111.225 162.025 3.175
      vertex 108.05 6.35 3.175
    endloop
  endfacet
  facet normal 0 0 -1
    outer loop
      vertex 6.35 158.85 3.175
      vertex 111.225 162.025 3.175
      vertex 108.05 158.85 3.175
    endloop
  endfacet
  facet normal 0 0 -1
    outer loop
      vertex 6.35 158.85 3.175
      vertex 3.175 162.025 3.175
      vertex 111.225 162.025 3.175
    endloop
  endfacet
  facet normal 0 0 -1
    outer loop
      vertex 3.175 162.025 3.175
      vertex 6.35 158.85 3.175
      vertex 3.175 3.175 3.175
    endloop
  endfacet
  facet normal 0 -1 0
    outer loop
      vertex 3.175 3.175 3.175
      vertex 111.225 3.175 4.175
      vertex 3.175 3.175 4.175
    endloop
  endfacet
  facet normal 0 -1 -0
    outer loop
      vertex 111.225 3.175 4.175
      vertex 3.175 3.175 3.175
      vertex 111.225 3.175 3.175
    endloop
  endfacet
  facet normal 1 -0 0
    outer loop
      vertex 6.35 6.35 4.175
      vertex 6.35 158.85 3.175
      vertex 6.35 158.85 4.175
    endloop
  endfacet
  facet normal 1 0 0
    outer loop
      vertex 6.35 158.85 3.175
      vertex 6.35 6.35 4.175
      vertex 6.35 6.35 3.175
    endloop
  endfacet
  facet normal -1 0 0
    outer loop
      vertex 108.05 6.35 3.175
      vertex 108.05 158.85 4.175
      vertex 108.05 158.85 3.175
    endloop
  endfacet
  facet normal -1 -0 0
    outer loop
      vertex 108.05 158.85 4.175
      vertex 108.05 6.35 3.175
      vertex 108.05 6.35 4.175
    endloop
  endfacet
  facet normal 0 1 -0
    outer loop
      vertex 108.05 6.35 3.175
      vertex 6.35 6.35 4.175
      vertex 108.05 6.35 4.175
    endloop
  endfacet
  facet normal 0 1 0
    outer loop
      vertex 6.35 6.35 4.175
      vertex 108.05 6.35 3.175
      vertex 6.35 6.35 3.175
    endloop
  endfacet
  facet normal 0 -1 0
    outer loop
      vertex 6.35 158.85 3.175
      vertex 108.05 158.85 4.175
      vertex 6.35 158.85 4.175
    endloop
  endfacet
  facet normal 0 -1 -0
    outer loop
      vertex 108.05 158.85 4.175
      vertex 6.35 158.85 3.175
      vertex 108.05 158.85 3.175
    endloop
  endfacet
  facet normal -1 0 0
    outer loop
      vertex 120.75 0 0
      vertex 120.75 165.2 3.175
      vertex 120.75 165.2 0
    endloop
  endfacet
  facet normal -1 -0 0
    outer loop
      vertex 120.75 165.2 3.175
      vertex 120.75 0 0
      vertex 120.75 0 3.175
    endloop
  endfacet
  facet normal 0 0 1
    outer loop
      vertex 235.15 165.2 3.175
      vertex 231.975 162.025 3.175
      vertex 235.15 0 3.175
    endloop
  endfacet
  facet normal 0 0 1
    outer loop
      vertex 235.15 165.2 3.175
      vertex 123.925 162.025 3.175
      vertex 231.975 162.025 3.175
    endloop
  endfacet
  facet normal 0 0 1
    outer loop
      vertex 123.925 162.025 3.175
      vertex 120.75 165.2 3.175
      vertex 123.925 3.175 3.175
    endloop
  endfacet
  facet normal -0 0 1
    outer loop
      vertex 120.75 165.2 3.175
      vertex 123.925 162.025 3.175
      vertex 235.15 165.2 3.175
    endloop
  endfacet
  facet normal -0 0 1
    outer loop
      vertex 231.975 3.175 3.175
      vertex 235.15 0 3.175
      vertex 231.975 162.025 3.175
    endloop
  endfacet
  facet normal -0 0 1
    outer loop
      vertex 123.925 3.175 3.175
      vertex 235.15 0 3.175
      vertex 231.975 3.175 3.175
    endloop
  endfacet
  facet normal 0 0 1
    outer loop
      vertex 123.925 3.175 3.175
      vertex 120.75 0 3.175
      vertex 235.15 0 3.175
    endloop
  endfacet
  facet normal 0 0 1
    outer loop
      vertex 120.75 0 3.175
      vertex 123.925 3.175 3.175
      vertex 120.75 165.2 3.175
    endloop
  endfacet
  facet normal 1 -0 0
    outer loop
      vertex 235.15 0 3.175
      vertex 235.15 165.2 0
      vertex 235.15 165.2 3.175
    endloop
  endfacet
  facet normal 1 0 0
    outer loop
      vertex 235.15 165.2 0
      vertex 235.15 0 3.175
      vertex 235.15 0 0
    endloop
  endfacet
  facet normal 0 1 -0
    outer loop
      vertex 235.15 165.2 0
      vertex 120.75 165.2 3.175
      vertex 235.15 165.2 3.175
    endloop
  endfacet
  facet normal 0 1 0
    outer loop
      vertex 120.75 165.2 3.175
      vertex 235.15 165.2 0
      vertex 120.75 165.2 0
    endloop
  endfacet
  facet normal 0 0 -1
    outer loop
      vertex 235.15 0 0
      vertex 225.625 9.525 0
      vertex 235.15 165.2 0
    endloop
  endfacet
  facet normal 0 0 -1
    outer loop
      vertex 235.15 0 0
      vertex 130.275 9.525 0
      vertex 225.625 9.525 0
    endloop
  endfacet
  facet normal -0 0 -1
    outer loop
      vertex 130.275 9.525 0
      vertex 120.75 0 0
      vertex 130.275 155.675 0
    endloop
  endfacet
  facet normal 0 0 -1
    outer loop
      vertex 120.75 0 0
      vertex 130.275 9.525 0
      vertex 235.15 0 0
    endloop
  endfacet
  facet normal 0 0 -1
    outer loop
      vertex 225.625 155.675 0
      vertex 235.15 165.2 0
      vertex 225.625 9.525 0
    endloop
  endfacet
  facet normal 0 0 -1
    outer loop
      vertex 130.275 155.675 0
      vertex 235.15 165.2 0
      vertex 225.625 155.675 0
    endloop
  endfacet
  facet normal 0 0 -1
    outer loop
      vertex 130.275 155.675 0
      vertex 120.75 165.2 0
      vertex 235.15 165.2 0
    endloop
  endfacet
  facet normal 0 0 -1
    outer loop
      vertex 120.75 165.2 0
      vertex 130.275 155.675 0
      vertex 120.75 0 0
    endloop
  endfacet
  facet normal 0 -1 0
    outer loop
      vertex 120.75 0 0
      vertex 235.15 0 3.175
      vertex 120.75 0 3.175
    endloop
  endfacet
  facet normal 0 -1 -0
    outer loop
      vertex 235.15 0 3.175
      vertex 120.75 0 0
      vertex 235.15 0 0
    endloop
  endfacet
  facet normal 1 -0 0
    outer loop
      vertex 130.275 9.525 2.185
      vertex 130.275 155.675 0
      vertex 130.275 155.675 2.185
    endloop
  endfacet
  facet normal 1 0 0
    outer loop
      vertex 130.275 155.675 0
      vertex 130.275 9.525 2.185
      vertex 130.275 9.525 0
    endloop
  endfacet
  facet normal -1 0 0
    outer loop
      vertex 225.625 9.525 0
      vertex 225.625 155.675 2.185
      vertex 225.625 155.675 0
    endloop
  endfacet
  facet normal -1 -0 0
    outer loop
      vertex 225.625 155.675 2.185
      vertex 225.625 9.525 0
      vertex 225.625 9.525 2.185
    endloop
  endfacet
  facet normal 0 -1 0
    outer loop
      vertex 130.275 155.675 0
      vertex 225.625 155.675 2.185
      vertex 130.275 155.675 2.185
    endloop
  endfacet
  facet normal 0 -1 -0
    outer loop
      vertex 225.625 155.675 2.185
      vertex 130.275 155.675 0
      vertex 225.625 155.675 0
    endloop
  endfacet
  facet normal 0 1 -0
    outer loop
      vertex 225.625 9.525 0
      vertex 130.275 9.525 2.185
      vertex 225.625 9.525 2.185
    endloop
  endfacet
  facet normal 0 1 0
    outer loop
      vertex 130.275 9.525 2.185
      vertex 225.625 9.525 0
      vertex 130.275 9.525 0
    endloop
  endfacet
  facet normal 0 0 1
    outer loop
      vertex 228.8 158.85 2.185
      vertex 225.625 155.675 2.185
      vertex 228.8 6.35 2.185
    endloop
  endfacet
  facet normal 0 0 1
    outer loop
      vertex 228.8 158.85 2.185
      vertex 130.275 155.675 2.185
      vertex 225.625 155.675 2.185
    endloop
  endfacet
  facet normal 0 0 1
    outer loop
      vertex 130.275 155.675 2.185
      vertex 127.1 158.85 2.185
      vertex 130.275 9.525 2.185
    endloop
  endfacet
  facet normal -0 0 1
    outer loop
      vertex 127.1 158.85 2.185
      vertex 130.275 155.675 2.185
      vertex 228.8 158.85 2.185
    endloop
  endfacet
  facet normal -0 0 1
    outer loop
      vertex 225.625 9.525 2.185
      vertex 228.8 6.35 2.185
      vertex 225.625 155.675 2.185
    endloop
  endfacet
  facet normal -0 0 1
    outer loop
      vertex 130.275 9.525 2.185
      vertex 228.8 6.35 2.185
      vertex 225.625 9.525 2.185
    endloop
  endfacet
  facet normal 0 0 1
    outer loop
      vertex 130.275 9.525 2.185
      vertex 127.1 6.35 2.185
      vertex 228.8 6.35 2.185
    endloop
  endfacet
  facet normal 0 0 1
    outer loop
      vertex 127.1 6.35 2.185
      vertex 130.275 9.525 2.185
      vertex 127.1 158.85 2.185
    endloop
  endfacet
  facet normal 1 -0 0
    outer loop
      vertex 123.925 3.175 3.175
      vertex 123.925 162.025 2.185
      vertex 123.925 162.025 3.175
    endloop
  endfacet
  facet normal 1 0 0
    outer loop
      vertex 123.925 162.025 2.185
      vertex 123.925 3.175 3.175
      vertex 123.925 3.175 2.185
    endloop
  endfacet
  facet normal -1 0 0
    outer loop
      vertex 231.975 3.175 2.185
      vertex 231.975 162.025 3.175
      vertex 231.975 162.025 2.185
    endloop
  endfacet
  facet normal -1 -0 0
    outer loop
      vertex 231.975 162.025 3.175
      vertex 231.975 3.175 2.185
      vertex 231.975 3.175 3.175
    endloop
  endfacet
  facet normal 0 -1 0
    outer loop
      vertex 123.925 162.025 2.185
      vertex 231.975 162.025 3.175
      vertex 123.925 162.025 3.175
    endloop
  endfacet
  facet normal 0 -1 -0
    outer loop
      vertex 231.975 162.025 3.175
      vertex 123.925 162.025 2.185
      vertex 231.975 162.025 2.185
    endloop
  endfacet
  facet normal 0 0 1
    outer loop
      vertex 231.975 162.025 2.185
      vertex 228.8 158.85 2.185
      vertex 231.975 3.175 2.185
    endloop
  endfacet
  facet normal 0 0 1
    outer loop
      vertex 231.975 162.025 2.185
      vertex 127.1 158.85 2.185
      vertex 228.8 158.85 2.185
    endloop
  endfacet
  facet normal 0 0 1
    outer loop
      vertex 127.1 158.85 2.185
      vertex 123.925 162.025 2.185
      vertex 127.1 6.35 2.185
    endloop
  endfacet
  facet normal -0 0 1
    outer loop
      vertex 123.925 162.025 2.185
      vertex 127.1 158.85 2.185
      vertex 231.975 162.025 2.185
    endloop
  endfacet
  facet normal -0 0 1
    outer loop
      vertex 228.8 6.35 2.185
      vertex 231.975 3.175 2.185
      vertex 228.8 158.85 2.185
    endloop
  endfacet
  facet normal -0 0 1
    outer loop
      vertex 127.1 6.35 2.185
      vertex 231.975 3.175 2.185
      vertex 228.8 6.35 2.185
    endloop
  endfacet
  facet normal 0 0 1
    outer loop
      vertex 127.1 6.35 2.185
      vertex 123.925 3.175 2.185
      vertex 231.975 3.175 2.185
    endloop
  endfacet
  facet normal 0 0 1
    outer loop
      vertex 123.925 3.175 2.185
      vertex 127.1 6.35 2.185
      vertex 123.925 162.025 2.185
    endloop
  endfacet
  facet normal 0 1 -0
    outer loop
      vertex 231.975 3.175 2.185
      vertex 123.925 3.175 3.175
      vertex 231.975 3.175 3.175
    endloop
  endfacet
  facet normal 0 1 0
    outer loop
      vertex 123.925 3.175 3.175
      vertex 231.975 3.175 2.185
      vertex 123.925 3.175 2.185
    endloop
  endfacet
endsolid OpenSCAD_Model
