<?xml version="1.0" encoding="UTF-8" standalone="no"?>
<svg
   xmlns:dc="http://purl.org/dc/elements/1.1/"
   xmlns:cc="http://creativecommons.org/ns#"
   xmlns:rdf="http://www.w3.org/1999/02/22-rdf-syntax-ns#"
   xmlns:svg="http://www.w3.org/2000/svg"
   xmlns="http://www.w3.org/2000/svg"
   id="svg6"
   version="1.1"
   viewBox="-63 -277 400.00001 400.00001"
   height="400mm"
   width="400mm">
  <metadata
     id="metadata12">
    <rdf:RDF>
      <cc:Work
         rdf:about="">
        <dc:format>image/svg+xml</dc:format>
        <dc:type
           rdf:resource="http://purl.org/dc/dcmitype/StillImage" />
        <dc:title>OpenSCAD Model</dc:title>
      </cc:Work>
    </rdf:RDF>
  </metadata>
  <defs
     id="defs10" />
  <title
     id="title2">OpenSCAD Model</title>
  <path
     style="fill:#d3d3d3;stroke:#000000;stroke-width:0.5"
     id="path4"
     d="m 139.84487,-213.97315 h -1.168 v -4.27901 h -0.566 l -1.134,0.765 v 0.57901 l 1.083,-0.75901 v 3.69401 h -1.223 v 0.521 h 3.008 z m 3.255,0.476 0.341,-0.133 0.281,-0.217 0.209,-0.295 0.13,-0.362 0.043,-0.418 -0.099,-0.599 -0.297,-0.444 -0.478,-0.276 -0.645,-0.091 h -0.948 v 2.88 h 1.072 z m -1.075,-0.266 v -2.258 h 0.551 l 0.489,0.07 0.357,0.212 0.219,0.344 0.073,0.473 -0.032,0.333 -0.096,0.286 -0.156,0.231 -0.212,0.17 -0.258,0.104 -0.296,0.035 z m -9.483,1.874 0.753,-1.563 -0.753,-1.564 -1.692,-0.386 -1.357,1.082 v 1.73499 l 1.357,1.08201 z m 18.277,2.126 h -1.486 l 0.08,-0.147 0.118,-0.153 0.161,-0.166 0.209,-0.183 0.354,-0.305 0.217,-0.213 0.131,-0.167 0.095,-0.167 0.057,-0.168 0.019,-0.168 -0.058,-0.339 -0.174,-0.25001 -0.281,-0.156 -0.381,-0.051 -0.357,0.05 -0.285,0.153 -0.198,0.23801 -0.092,0.308 0.374,0.035 0.057,-0.204 0.119,-0.152 0.17,-0.096 0.212,-0.031 0.217,0.033 0.164,0.1 0.103,0.16 0.034,0.214 -0.02,0.168 -0.06,0.15 -0.092,0.137 -0.117,0.131 -0.137,0.127 -0.315,0.261 -0.163,0.145 -0.16,0.158 -0.152,0.176 -0.137,0.198 -0.114,0.227 v 0.258 h 1.888 z m -7.908,0 h -1.486 l 0.08,-0.147 0.118,-0.153 0.161,-0.166 0.209,-0.183 0.353,-0.305 0.218,-0.213 0.131,-0.167 0.095,-0.167 0.057,-0.168 0.019,-0.168 -0.058,-0.339 -0.174,-0.25001 -0.281,-0.156 -0.381,-0.051 -0.357,0.05 -0.285,0.153 -0.198,0.23801 -0.092,0.308 0.374,0.035 0.057,-0.204 0.119,-0.152 0.17,-0.096 0.212,-0.031 0.217,0.033 0.164,0.1 0.102,0.16 0.035,0.214 -0.02,0.168 -0.06,0.15 -0.093,0.137 -0.116,0.131 -0.137,0.127 -0.315,0.261 -0.163,0.145 -0.16,0.158 -0.152,0.176 -0.137,0.198 -0.114,0.227 v 0.258 h 1.888 z m -4.52,0 h -1.486 l 0.08,-0.147 0.118,-0.153 0.161,-0.166 0.209,-0.183 0.354,-0.305 0.217,-0.213 0.132,-0.167 0.094,-0.167 0.057,-0.168 0.019,-0.168 -0.058,-0.339 -0.174,-0.25001 -0.281,-0.156 -0.381,-0.051 -0.356,0.05 -0.286,0.153 -0.197,0.23801 -0.093,0.308 0.374,0.035 0.057,-0.204 0.119,-0.152 0.171,-0.096 0.211,-0.031 0.217,0.033 0.164,0.1 0.103,0.16 0.034,0.214 -0.02,0.168 -0.06,0.15 -0.092,0.137 -0.117,0.131 -0.137,0.127 -0.315,0.261 -0.163,0.145 -0.159,0.158 -0.153,0.176 -0.137,0.198 -0.114,0.227 v 0.258 h 1.888 z m 2.26,0 h -1.486 l 0.08,-0.147 0.118,-0.153 0.161,-0.166 0.209,-0.183 0.354,-0.305 0.217,-0.213 0.131,-0.167 0.095,-0.167 0.057,-0.168 0.019,-0.168 -0.058,-0.339 -0.174,-0.25001 -0.281,-0.156 -0.381,-0.051 -0.357,0.05 -0.285,0.153 -0.198,0.23801 -0.092,0.308 0.374,0.035 0.057,-0.204 0.119,-0.152 0.17,-0.096 0.212,-0.031 0.217,0.033 0.164,0.1 0.103,0.16 0.034,0.214 -0.02,0.168 -0.06,0.15 -0.092,0.137 -0.117,0.131 -0.137,0.127 -0.315,0.261 -0.163,0.145 -0.16,0.158 -0.152,0.176 -0.137,0.198 -0.114,0.227 v 0.258 h 1.888 z m 7.594,-0.361 h 0.402 v -0.288 h -0.402 v -1.92001 h -0.382 l -1.305,1.92401 v 0.284 h 1.341 v 0.672 h 0.346 z m -1.349,-0.288 0.032,-0.04 0.109,-0.15 0.727,-1.077 0.033,-0.053 0.086,-0.156 0.016,-0.032 v 1.508 z m -1.15,0.957 0.319,-0.2 0.201,-0.318 0.067,-0.416 -0.062,-0.371 -0.188,-0.293 -0.291,-0.192 -0.378,-0.063 -0.323,0.045 -0.265,0.138 0.054,-0.896 h 1.287 v -0.31101 h -1.62 l -0.095,1.52901 h 0.358 l 0.127,-0.096 0.127,-0.063 0.132,-0.036 0.142,-0.011 0.253,0.043 0.195,0.131 0.126,0.2 0.041,0.254 -0.041,0.289 -0.125,0.22 -0.197,0.138 -0.261,0.047 -0.385,-0.107 -0.206,-0.318 -0.369,0.043 0.11,0.292 0.199,0.214 0.284,0.131 0.36,0.044 z m -1.897,-0.445 h -0.396 v 0.448 h 0.396 z m 62.961,39.81602 h -1.168 v -4.279 h -0.566 l -1.134,0.765 v 0.579 l 1.083,-0.759 v 3.694 h -1.223 v 0.521 h 3.008 z m 83.627,1.539 0.405,-0.12 0.323,-0.201 0.237,-0.273 0.141,-0.34 0.047,-0.406 -0.033,-0.286 -0.101,-0.252 -0.168,-0.218 -0.227,-0.173 -0.281,-0.119 -0.335,-0.066 v -0.013 l 0.304,-0.089 0.25,-0.131 0.198,-0.172 0.144,-0.212 0.087,-0.25 0.028,-0.29 -0.044,-0.372 -0.135,-0.313 -0.224,-0.254 -0.304,-0.188 -0.376,-0.112 -0.449,-0.038 -0.416,0.037 -0.363,0.11 -0.309,0.184 -0.242,0.249 -0.164,0.306 -0.086,0.364 0.617,0.048 0.051,-0.233 0.098,-0.195 0.145,-0.158 0.187,-0.115 0.221,-0.07 0.255,-0.023 0.276,0.025 0.226,0.075 0.177,0.125 0.128,0.168 0.076,0.205 0.025,0.24 -0.031,0.242 -0.093,0.204 -0.156,0.167 -0.212,0.123 -0.263,0.074 -0.314,0.024 h -0.337 v 0.531 h 0.351 l 0.353,0.024 0.293,0.073 0.232,0.12 0.169,0.163 0.102,0.201 0.033,0.239 -0.029,0.271 -0.089,0.223 -0.149,0.174 -0.2,0.125 -0.245,0.075 -0.29,0.025 -0.532,-0.094 -0.352,-0.284 -0.173,-0.473 -0.633,0.058 0.095,0.395 0.173,0.324 0.251,0.254 0.325,0.182 0.391,0.11 0.455,0.036 z m -80.171,-1.001 0.346,-0.142 0.284,-0.233 0.213,-0.319 -0.317,-0.155 -0.378,0.433 -0.527,0.144 -0.422,-0.082 -0.324,-0.246 -0.206,-0.382 -0.069,-0.487 0.066,-0.489 0.198,-0.372 0.318,-0.236 0.423,-0.078 0.283,0.033 0.241,0.1 0.191,0.161 0.13,0.221 0.367,-0.122 -0.185,-0.309 -0.266,-0.222 -0.345,-0.134 -0.42,-0.045 -0.584,0.099 -0.441,0.297 -0.278,0.472 -0.092,0.624 0.041,0.435 0.124,0.373 0.203,0.302 0.279,0.223 0.346,0.137 0.404,0.046 z m -10.759,1.546 0.753,-1.563 -0.753,-1.564 -1.692,-0.386 -1.357,1.082 v 1.736 l 1.357,1.082 z m 95.415,-0.622 0.33,-0.162 0.207,-0.257 0.069,-0.344 -0.045,-0.265 -0.138,-0.215 -0.221,-0.153 -0.3,-0.079 0.228,-0.087 0.17,-0.144 0.106,-0.193 0.035,-0.234 -0.249,-0.52 -0.75,-0.174 h -1.032 v 2.88 h 1.152 z m -1.202,-1.611 v -0.905 h 0.644 l 0.261,0.025 0.191,0.075 0.118,0.132 0.039,0.198 -0.038,0.211 -0.114,0.148 -0.189,0.087 -0.268,0.029 z m 0,1.353 v -1.05 h 0.714 l 0.527,0.129 0.175,0.386 -0.04,0.234 -0.121,0.167 -0.207,0.101 -0.304,0.033 z m -9.479,1.875 0.753,-1.564 -0.753,-1.563 -1.692,-0.387 -1.357,1.082 v 1.736 l 1.357,1.082 z m -66.457,1.131 h -1.486 l 0.08,-0.147 0.118,-0.153 0.161,-0.165 0.209,-0.184 0.353,-0.305 0.218,-0.213 0.131,-0.167 0.095,-0.167 0.057,-0.168 0.019,-0.168 -0.058,-0.338 -0.174,-0.251 -0.281,-0.155 -0.381,-0.052 -0.357,0.051 -0.285,0.152 -0.198,0.238 -0.092,0.308 0.374,0.035 0.057,-0.204 0.119,-0.152 0.17,-0.095 0.212,-0.032 0.217,0.033 0.164,0.1 0.102,0.16 0.035,0.214 -0.02,0.168 -0.06,0.15 -0.093,0.137 -0.116,0.131 -0.137,0.127 -0.315,0.261 -0.163,0.145 -0.16,0.158 -0.152,0.176 -0.137,0.198 -0.114,0.227 v 0.258 h 1.888 z m -10.168,0 h -1.486 l 0.08,-0.147 0.118,-0.153 0.161,-0.165 0.209,-0.184 0.353,-0.305 0.218,-0.213 0.131,-0.167 0.095,-0.167 0.057,-0.168 0.019,-0.168 -0.058,-0.338 -0.174,-0.251 -0.281,-0.155 -0.381,-0.052 -0.357,0.051 -0.285,0.152 -0.198,0.238 -0.092,0.308 0.374,0.035 0.057,-0.204 0.119,-0.152 0.17,-0.095 0.212,-0.032 0.217,0.033 0.164,0.1 0.102,0.16 0.035,0.214 -0.02,0.168 -0.06,0.15 -0.093,0.137 -0.116,0.131 -0.137,0.127 -0.315,0.261 -0.163,0.145 -0.16,0.158 -0.152,0.176 -0.137,0.198 -0.114,0.227 v 0.258 h 1.888 z m -2.841,0.274 0.325,-0.303 0.201,-0.492 0.067,-0.666 -0.061,-0.633 -0.184,-0.452 -0.303,-0.271 -0.417,-0.09 -0.398,0.066 -0.3,0.199 -0.188,0.313 -0.063,0.413 0.057,0.405 0.173,0.316 0.269,0.204 0.346,0.068 0.224,-0.028 0.206,-0.082 0.167,-0.129 0.11,-0.165 -0.049,0.482 -0.131,0.357 -0.207,0.22 -0.277,0.074 -0.306,-0.089 -0.174,-0.268 -0.349,0.055 0.115,0.271 0.173,0.185 0.235,0.106 0.3,0.035 z m -0.62,-1.258 -0.178,-0.142 -0.113,-0.224 -0.038,-0.292 0.038,-0.286 0.113,-0.22 0.179,-0.141 0.234,-0.047 0.238,0.055 0.184,0.164 0.118,0.254 0.039,0.325 -0.02,0.166 -0.058,0.148 -0.092,0.121 -0.12,0.091 -0.141,0.056 -0.152,0.019 z m 8.555,1.292 0.32,-0.2 0.201,-0.318 0.067,-0.416 -0.062,-0.371 -0.188,-0.293 -0.292,-0.191 -0.377,-0.064 -0.323,0.046 -0.265,0.137 0.054,-0.896 h 1.287 v -0.311 h -1.62 l -0.095,1.529 h 0.358 l 0.127,-0.096 0.127,-0.063 0.132,-0.035 0.142,-0.012 0.253,0.043 0.195,0.131 0.125,0.2 0.042,0.254 -0.041,0.289 -0.125,0.22 -0.197,0.139 -0.261,0.046 -0.386,-0.106 -0.205,-0.319 -0.369,0.043 0.11,0.292 0.199,0.214 0.284,0.131 0.36,0.044 z m -2.659,-0.389 0.067,-0.379 0.113,-0.375 0.157,-0.379 0.244,-0.456 0.372,-0.602 v -0.297 h -1.884 v 0.311 h 1.531 l -0.464,0.75 -0.31,0.657 -0.173,0.595 -0.058,0.567 h 0.382 z m 5.483,0.081 h -0.696 v -2.569 h -0.337 l -0.677,0.487 v 0.345 l 0.646,-0.483 v 2.22 h -0.729 v 0.311 h 1.793 z m 86.456,1.313 0.305,-0.171 0.188,-0.273 0.063,-0.363 -0.038,-0.265 -0.114,-0.218 -0.182,-0.157 -0.243,-0.083 v -0.008 l 0.21,-0.081 0.16,-0.151 0.102,-0.201 0.034,-0.234 -0.061,-0.308 -0.183,-0.237 -0.287,-0.151 -0.377,-0.051 -0.369,0.052 -0.286,0.154 -0.182,0.238 -0.061,0.299 0.034,0.233 0.1,0.201 0.159,0.153 0.208,0.088 v 0.008 l -0.227,0.081 -0.182,0.158 -0.119,0.219 -0.04,0.265 0.065,0.365 0.193,0.271 0.308,0.167 0.407,0.056 z m -0.642,-1.704 -0.167,-0.099 -0.103,-0.161 -0.035,-0.221 0.034,-0.216 0.1,-0.155 0.165,-0.093 0.225,-0.031 0.396,0.124 0.132,0.371 -0.033,0.234 -0.101,0.158 -0.164,0.091 -0.226,0.03 z m -0.218,1.333 -0.15,-0.461 0.039,-0.235 0.116,-0.18 0.186,-0.113 0.246,-0.038 0.252,0.036 0.189,0.105 0.119,0.174 0.039,0.242 -0.036,0.281 -0.109,0.193 -0.183,0.112 -0.259,0.037 z m -3.649,0.331 0.312,-0.29 0.189,-0.472 0.063,-0.646 -0.06,-0.653 -0.18,-0.471 -0.306,-0.285 -0.437,-0.095 -0.449,0.094 -0.309,0.282 -0.18,0.47 -0.059,0.658 0.061,0.648 0.185,0.472 0.308,0.288 0.431,0.096 z m -0.707,-0.275 -0.192,-0.218 -0.111,-0.373 -0.037,-0.542 0.036,-0.553 0.11,-0.372 0.194,-0.211 0.288,-0.071 0.28,0.072 0.188,0.214 0.107,0.373 0.036,0.548 -0.038,0.534 -0.112,0.375 -0.192,0.222 -0.278,0.074 z m -7.213,0.317 0.304,-0.164 0.189,-0.264 0.062,-0.354 -0.044,-0.251 -0.134,-0.206 -0.213,-0.145 -0.285,-0.072 v -0.008 l 0.257,-0.091 0.187,-0.15 0.115,-0.204 0.038,-0.259 -0.059,-0.33 -0.179,-0.248 -0.285,-0.156 -0.381,-0.052 -0.357,0.05 -0.286,0.147 -0.197,0.236 -0.093,0.313 0.368,0.028 0.055,-0.199 0.117,-0.15 0.172,-0.093 0.217,-0.031 0.232,0.036 0.166,0.105 0.101,0.166 0.033,0.216 -0.041,0.218 -0.124,0.164 -0.197,0.104 -0.266,0.034 h -0.198 v 0.317 h 0.206 l 0.298,0.033 0.218,0.099 0.135,0.158 0.044,0.209 -0.039,0.238 -0.118,0.17 -0.185,0.103 -0.245,0.034 -0.427,-0.127 -0.192,-0.381 -0.378,0.035 0.101,0.337 0.205,0.243 0.302,0.147 0.389,0.049 z m 9.744,-0.402 0.067,-0.379 0.113,-0.374 0.157,-0.38 0.244,-0.456 0.372,-0.602 v -0.297 h -1.884 v 0.311 h 1.531 l -0.464,0.75 -0.31,0.657 -0.173,0.596 -0.058,0.566 h 0.382 z m -5.009,-0.28 h 0.402 v -0.288 h -0.402 v -1.92 h -0.382 l -1.305,1.924 v 0.284 h 1.341 v 0.672 h 0.346 z m -1.349,-0.288 0.032,-0.04 0.109,-0.15 0.727,-1.077 0.032,-0.053 0.087,-0.155 0.016,-0.033 v 1.508 z m -1.151,0.958 0.32,-0.201 0.201,-0.317 0.067,-0.417 -0.062,-0.37 -0.188,-0.294 -0.292,-0.191 -0.377,-0.064 -0.323,0.046 -0.265,0.137 0.054,-0.896 h 1.287 v -0.311 h -1.62 l -0.095,1.529 h 0.358 l 0.127,-0.095 0.127,-0.064 0.132,-0.035 0.142,-0.012 0.253,0.044 0.195,0.13 0.125,0.2 0.042,0.254 -0.041,0.29 -0.125,0.219 -0.197,0.139 -0.261,0.046 -0.386,-0.106 -0.205,-0.319 -0.369,0.043 0.11,0.292 0.199,0.214 0.284,0.132 0.36,0.043 z m -83.242,-1.44 h -0.396 v 0.448 h 0.396 z m 86.995,0.994 h -0.396 v 0.448 h 0.396 z m -208.972933,5.70101 h 0.674 v -0.484 h -0.674 v -3.2 h -0.648 l -2.211,3.211 v 0.473 h 2.28 v 1.116 h 0.579 z m -2.293,-0.484 0.055,-0.067 0.186,-0.25 1.242,-1.791 0.0349,-0.053 0.0446,-0.074 0.1052,-0.186 0.0324,-0.059 0.0139,-0.029 v 2.509 z m 6.0775,1.555 0.3415,-0.133 0.281,-0.217 0.209,-0.295 0.1297,-0.362 0.0433,-0.418 -0.099,-0.599 -0.297,-0.444 -0.4783,-0.275 -0.6447,-0.092 h -0.948 v 2.88 h 1.072 z m -1.0745,-0.266 v -2.258 h 0.551 l 0.4885,0.07 0.3575,0.212 0.219,0.345 0.073,0.472 -0.032,0.333 -0.096,0.286 -0.156,0.231 -0.212,0.17 -0.258,0.104 -0.296,0.035 z m -9.483,1.875 0.753,-1.564 -0.753,-1.564 -1.6921,-0.386 -1.3569,1.082 v 1.736 l 1.3569,1.082 z m 13.2277,2.445 0.3045,-0.163 0.1882,-0.264 0.0628,-0.354 -0.0445,-0.252 -0.1335,-0.205 -0.2135,-0.145 -0.2845,-0.072 v -0.008 l 0.2565,-0.092 0.1875,-0.149 0.1147,-0.205 0.0383,-0.258 -0.0595,-0.33 -0.1785,-0.248 -0.285,-0.156 -0.381,-0.052 -0.3573,0.049 -0.2857,0.148 -0.1975,0.236 -0.0925,0.313 0.368,0.028 0.055,-0.2 0.117,-0.149 0.1717,-0.093 0.2173,-0.031 0.2315,0.035 0.1665,0.106 0.1005,0.165 0.0335,0.217 -0.0413,0.217 -0.1237,0.165 -0.1978,0.103 -0.2652,0.035 h -0.198 v 0.317 h 0.206 l 0.2975,0.033 0.2185,0.099 0.1342,0.158 0.0448,0.209 -0.0393,0.237 -0.1177,0.171 -0.1855,0.103 -0.2445,0.034 -0.4278,-0.127 -0.1912,-0.381 -0.378,0.035 0.101,0.337 0.205,0.243 0.3017,0.147 0.3893,0.049 z m -5.6485,0 0.3045,-0.163 0.1883,-0.264 0.0627,-0.354 -0.0445,-0.252 -0.1335,-0.205 -0.2135,-0.145 -0.2845,-0.072 v -0.008 l 0.2565,-0.092 0.1875,-0.149 0.1148,-0.205 0.0382,-0.258 -0.0595,-0.33 -0.1785,-0.248 -0.285,-0.156 -0.381,-0.052 -0.3572,0.049 -0.2858,0.148 -0.1975,0.236 -0.0925,0.313 0.368,0.028 0.055,-0.2 0.117,-0.149 0.1718,-0.093 0.2172,-0.031 0.2315,0.035 0.1665,0.106 0.1005,0.165 0.0335,0.217 -0.0412,0.217 -0.1238,0.165 -0.1977,0.103 -0.2653,0.035 h -0.198 v 0.317 h 0.206 l 0.2975,0.033 0.2185,0.099 0.1343,0.158 0.0447,0.209 -0.0392,0.237 -0.1178,0.171 -0.1855,0.103 -0.2445,0.034 -0.4277,-0.127 -0.1913,-0.381 -0.378,0.035 0.101,0.337 0.205,0.243 0.3018,0.147 0.3892,0.049 z m -2.2597,0 0.3045,-0.163 0.1882,-0.264 0.0628,-0.354 -0.0445,-0.252 -0.1335,-0.205 -0.2135,-0.145 -0.2845,-0.072 v -0.008 l 0.2565,-0.092 0.1875,-0.149 0.1147,-0.205 0.0383,-0.258 -0.0595,-0.33 -0.1785,-0.248 -0.285,-0.156 -0.381,-0.052 -0.3573,0.049 -0.2857,0.148 -0.1975,0.236 -0.0925,0.313 0.368,0.028 0.055,-0.2 0.117,-0.149 0.1717,-0.093 0.2173,-0.031 0.2315,0.035 0.1665,0.106 0.1005,0.165 0.0335,0.217 -0.0413,0.217 -0.1237,0.165 -0.1978,0.103 -0.2652,0.035 h -0.198 v 0.317 h 0.206 l 0.2975,0.033 0.2185,0.099 0.1342,0.158 0.0448,0.209 -0.0393,0.237 -0.1177,0.171 -0.1855,0.103 -0.2445,0.034 -0.4278,-0.127 -0.1912,-0.381 -0.378,0.035 0.101,0.337 0.205,0.243 0.3017,0.147 0.3893,0.049 z m 12.0037,-0.401 0.0675,-0.379 0.1125,-0.375 0.1575,-0.379 0.244,-0.456 0.372,-0.602 v -0.297 h -1.884 v 0.311 h 1.531 l -0.4645,0.75 -0.3095,0.657 -0.1732,0.595 -0.0578,0.567 h 0.382 z m -7.5085,0.389 0.3198,-0.2 0.201,-0.318 0.067,-0.416 -0.0625,-0.371 -0.1875,-0.293 -0.2918,-0.191 -0.3772,-0.064 -0.323,0.046 -0.265,0.137 0.054,-0.896 h 1.287 v -0.311 h -1.62 l -0.095,1.529 h 0.358 l 0.127,-0.096 0.127,-0.063 0.132,-0.035 0.142,-0.012 0.253,0.043 0.195,0.131 0.1252,0.2 0.0418,0.254 -0.0415,0.289 -0.1245,0.22 -0.197,0.139 -0.261,0.046 -0.3857,-0.106 -0.2053,-0.319 -0.369,0.043 0.1097,0.292 0.1993,0.214 0.2835,0.131 0.3605,0.044 z m 5.6485,0 0.3197,-0.2 0.201,-0.318 0.067,-0.416 -0.0625,-0.371 -0.1875,-0.293 -0.2917,-0.191 -0.3773,-0.064 -0.323,0.046 -0.265,0.137 0.054,-0.896 h 1.287 v -0.311 h -1.62 l -0.095,1.529 h 0.358 l 0.127,-0.096 0.127,-0.063 0.132,-0.035 0.142,-0.012 0.253,0.043 0.195,0.131 0.1253,0.2 0.0417,0.254 -0.0415,0.289 -0.1245,0.22 -0.197,0.139 -0.261,0.046 -0.3857,-0.106 -0.2053,-0.319 -0.369,0.043 0.1098,0.292 0.1992,0.214 0.2835,0.131 0.3605,0.044 z m -4.1559,-0.445 h -0.396 v 0.448 h 0.396 z m -38.2809,21.578 h -2.524 l 0.0831,-0.16 0.112,-0.165 0.1409,-0.17 0.1739,-0.178 0.2097,-0.192 0.2454,-0.206 0.4271,-0.351 0.324,-0.285 0.2209,-0.217 0.1554,-0.184 0.1277,-0.183 0.0999,-0.184 0.0717,-0.184 0.043,-0.185 0.0143,-0.186 -0.0437,-0.387 -0.131,-0.324 -0.2183,-0.26 -0.2989,-0.19 -0.374,-0.114 -0.4491,-0.038 -0.417,0.038 -0.363,0.114 -0.309,0.189 -0.2427,0.253 -0.164,0.306 -0.0853,0.357 0.627,0.058 0.0534,-0.237 0.1004,-0.2 0.1472,-0.161 0.1868,-0.118 0.2176,-0.071 0.2486,-0.024 0.2577,0.025 0.217,0.072 0.1763,0.121 0.13,0.165 0.078,0.203 0.026,0.243 -0.0151,0.189 -0.0453,0.174 -0.0756,0.161 -0.0994,0.152 -0.1184,0.147 -0.1372,0.143 -0.1526,0.141 -0.1643,0.141 -0.3587,0.285 -0.1836,0.153 -0.1848,0.16 -0.1826,0.171 -0.177,0.184 -0.1714,0.196 -0.1595,0.213 -0.1423,0.234 -0.1252,0.255 v 0.432 h 3.198 z m 3.4552,0.538 0.3458,-0.142 0.2842,-0.232 0.2128,-0.32 -0.317,-0.155 -0.3778,0.433 -0.5272,0.144 -0.4215,-0.082 -0.3245,-0.246 -0.2063,-0.381 -0.0687,-0.488 0.066,-0.488 0.198,-0.373 0.3177,-0.235 0.4233,-0.079 0.283,0.034 0.241,0.099 0.1907,0.162 0.1303,0.22 0.367,-0.122 -0.1848,-0.308 -0.2662,-0.223 -0.3448,-0.134 -0.4202,-0.045 -0.5838,0.099 -0.4412,0.297 -0.2775,0.472 -0.0925,0.624 0.0412,0.435 0.1238,0.373 0.2035,0.302 0.2785,0.22299 0.346,0.138 0.404,0.045 z m -10.7592,1.547 0.753,-1.564 -0.753,-1.563 -1.692,-0.387 -1.3569,1.083 v 1.735 l 1.3569,1.082 z m 5.849,2.125 h -1.486 l 0.08,-0.147 0.118,-0.153 0.161,-0.165 0.209,-0.184 0.3537,-0.305 0.2173,-0.213 0.1315,-0.167 0.0945,-0.167 0.057,-0.167 0.019,-0.169 -0.058,-0.338 -0.174,-0.251 -0.281,-0.155 -0.381,-0.052 -0.3565,0.051 -0.2855,0.152 -0.1975,0.238 -0.0925,0.308 0.374,0.035 0.057,-0.203 0.119,-0.153 0.1705,-0.095 0.2115,-0.032 0.2172,0.034 0.1638,0.099 0.1027,0.16 0.0343,0.214 -0.02,0.168 -0.06,0.15 -0.0923,0.137 -0.1167,0.131 -0.137,0.128 -0.3147,0.261 -0.1633,0.144 -0.1595,0.158 -0.1525,0.176 -0.1368,0.199 -0.1142,0.226 v 0.258 h 1.888 z m 7.3905,0.279 0.3117,-0.29 0.189,-0.472 0.063,-0.646 -0.06,-0.653 -0.18,-0.471 -0.3053,-0.285 -0.4377,-0.095 -0.4485,0.094 -0.3095,0.282 -0.1793,0.47 -0.0597,0.658 0.0615,0.648 0.1845,0.472 0.3083,0.288 0.4307,0.096 z m -0.707,-0.275 -0.1923,-0.218 -0.111,-0.373 -0.037,-0.542 0.0365,-0.553 0.1095,-0.372 0.194,-0.211 0.288,-0.071 0.28,0.072 0.188,0.214 0.1072,0.373 0.0358,0.548 -0.0375,0.534 -0.1125,0.375 -0.192,0.222 -0.278,0.074 z m -2.478,-0.365 h 0.402 v -0.288 h -0.402 v -1.92 h -0.382 l -1.305,1.924 v 0.284 h 1.341 v 0.672 h 0.346 z m -1.349,-0.288 0.032,-0.04 0.109,-0.15 0.727,-1.077 0.0325,-0.053 0.0863,-0.155 0.0162,-0.033 v 1.508 z m 6.9975,0.288 h 0.402 v -0.288 h -0.402 v -1.92 h -0.382 l -1.305,1.924 v 0.284 h 1.341 v 0.672 h 0.346 z m -1.349,-0.288 0.032,-0.04 0.109,-0.15 0.727,-1.077 0.0325,-0.053 0.0862,-0.155 0.0163,-0.033 v 1.508 z m -6.799,0.958 0.3198,-0.201 0.201,-0.317 0.067,-0.417 -0.0625,-0.37 -0.1875,-0.294 -0.2918,-0.191 -0.3772,-0.064 -0.323,0.046 -0.265,0.137 0.054,-0.896 h 1.287 v -0.311 h -1.62 l -0.095,1.529 h 0.358 l 0.127,-0.095 0.127,-0.064 0.132,-0.035 0.142,-0.012 0.253,0.044 0.195,0.13 0.1252,0.2 0.0418,0.254 -0.0415,0.29 -0.1245,0.219 -0.197,0.139 -0.261,0.046 -0.3858,-0.106 -0.2052,-0.319 -0.369,0.043 0.1097,0.292 0.1993,0.214 0.2835,0.132 0.3605,0.043 z m 9.7682,-0.39 0.0675,-0.379 0.1125,-0.374 0.1575,-0.38 0.244,-0.456 0.372,-0.602 v -0.297 h -1.884 v 0.311 h 1.531 l -0.4645,0.75 -0.3095,0.657 -0.1732,0.596 -0.0578,0.566 h 0.382 z m -6.0159,-0.056 h -0.396 v 0.448 h 0.396 z m 6.3997,7.353 h -2.524 l 0.0831,-0.16 0.112,-0.166 0.1409,-0.169 0.1739,-0.178 0.2097,-0.192 0.2454,-0.206 0.4271,-0.351 0.324,-0.285 0.2209,-0.217 0.1554,-0.184 0.1277,-0.183 0.0999,-0.184 0.0717,-0.184 0.043,-0.185 0.0143,-0.186 -0.0437,-0.387 -0.131,-0.324 -0.2183,-0.26 -0.2989,-0.19 -0.374,-0.114 -0.4491,-0.038 -0.417,0.038 -0.363,0.114 -0.309,0.189 -0.2427,0.253 -0.1639,0.306 -0.0854,0.357 0.627,0.058 0.0535,-0.237 0.1003,-0.2 0.1472,-0.161 0.1868,-0.118 0.2177,-0.071 0.2485,-0.024 0.2577,0.024 0.217,0.073 0.1763,0.121 0.13,0.165 0.078,0.203 0.026,0.243 -0.0151,0.189 -0.0453,0.174 -0.0756,0.161 -0.0994,0.152 -0.1184,0.147 -0.1372,0.143 -0.1525,0.141 -0.1644,0.141 -0.3586,0.285 -0.1837,0.153 -0.1848,0.16 -0.1825,0.171 -0.177,0.184 -0.1715,0.196 -0.1594,0.213 -0.1424,0.234 -0.1252,0.255 v 0.432 h 3.198 z m 3.377,0.468 0.33,-0.162 0.207,-0.257 0.069,-0.344 -0.0457,-0.265 -0.1373,-0.215 -0.2217,-0.153 -0.2993,-0.079 0.228,-0.087 0.17,-0.144 0.1058,-0.193 0.0352,-0.234 -0.2497,-0.52 -0.7493,-0.174 h -1.032 v 2.88 h 1.152 z m -1.202,-1.611 v -0.905 h 0.644 l 0.261,0.025 0.191,0.075 0.1178,0.132 0.0392,0.198 -0.038,0.211 -0.114,0.148 -0.1897,0.087 -0.2673,0.029 z m 0,1.353 v -1.05 h 0.714 l 0.5265,0.129 0.1755,0.386 -0.0402,0.234 -0.1208,0.167 -0.2077,0.101 -0.3033,0.033 z m -9.479,1.875 0.753,-1.564 -0.753,-1.563 -1.692,-0.387 -1.3569,1.083 v 1.735 l 1.3569,1.082 z m 76.879533,2.742 h -1.168 v -4.279 h -0.566 l -1.134,0.765 v 0.579 l 1.083,-0.759 v 3.694 h -1.223 v 0.521 h 3.008 z m -60.862533,-0.617 h -1.486 l 0.08,-0.147 0.118,-0.153 0.161,-0.165 0.209,-0.184 0.3537,-0.305 0.2173,-0.213 0.1315,-0.167 0.0945,-0.167 0.057,-0.167 0.019,-0.169 -0.058,-0.338 -0.174,-0.251 -0.281,-0.155 -0.381,-0.052 -0.3565,0.051 -0.2855,0.152 -0.1975,0.238 -0.0925,0.308 0.374,0.035 0.057,-0.203 0.119,-0.153 0.1705,-0.095 0.2115,-0.032 0.2172,0.034 0.1638,0.099 0.1027,0.16 0.0343,0.214 -0.02,0.168 -0.06,0.15 -0.0923,0.137 -0.1167,0.131 -0.137,0.128 -0.3148,0.261 -0.1632,0.144 -0.1595,0.158 -0.1525,0.176 -0.1368,0.199 -0.1142,0.226 v 0.258 h 1.888 z m -6.178,0.321 0.3045,-0.164 0.1883,-0.264 0.0627,-0.354 -0.0445,-0.251 -0.1335,-0.206 -0.2135,-0.145 -0.2845,-0.072 v -0.008 l 0.2565,-0.091 0.1875,-0.15 0.1148,-0.204 0.0382,-0.259 -0.0595,-0.33 -0.1785,-0.248 -0.285,-0.156 -0.381,-0.052 -0.3572,0.05 -0.2858,0.147 -0.1975,0.236 -0.0925,0.313 0.368,0.028 0.055,-0.199 0.117,-0.15 0.1718,-0.093 0.2172,-0.031 0.2315,0.036 0.1665,0.105 0.1005,0.166 0.0335,0.216 -0.0412,0.218 -0.1238,0.164 -0.1977,0.104 -0.2653,0.034 h -0.198 v 0.317 h 0.206 l 0.2975,0.033 0.2185,0.099 0.1343,0.158 0.0447,0.209 -0.0392,0.238 -0.1178,0.17 -0.1855,0.103 -0.2445,0.034 -0.4277,-0.127 -0.1913,-0.381 -0.378,0.035 0.101,0.337 0.205,0.243 0.3018,0.147 0.3892,0.049 z m -3.98,-0.321 h -0.696 v -2.569 h -0.337 l -0.677,0.487 v 0.345 l 0.646,-0.483 v 2.22 h -0.729 v 0.311 h 1.793 z m 1.696,0.309 0.3198,-0.201 0.201,-0.317 0.067,-0.417 -0.0625,-0.37 -0.1875,-0.294 -0.2918,-0.191 -0.3772,-0.064 -0.323,0.046 -0.265,0.137 0.054,-0.896 h 1.287 v -0.311 h -1.62 l -0.095,1.529 h 0.358 l 0.127,-0.095 0.127,-0.064 0.132,-0.035 0.142,-0.012 0.253,0.044 0.195,0.13 0.1252,0.2 0.0418,0.254 -0.0415,0.29 -0.1245,0.219 -0.197,0.139 -0.261,0.046 -0.3858,-0.106 -0.2052,-0.319 -0.369,0.043 0.1097,0.292 0.1993,0.214 0.2835,0.132 0.3605,0.043 z m 9.7682,-0.39 0.0675,-0.379 0.1125,-0.374 0.1575,-0.38 0.244,-0.456 0.372,-0.602 v -0.297 h -1.884 v 0.311 h 1.531 l -0.4645,0.75 -0.3095,0.657 -0.1732,0.596 -0.0578,0.566 h 0.382 z m -4.1197,0.39 0.3197,-0.201 0.201,-0.317 0.067,-0.417 -0.0625,-0.37 -0.1875,-0.294 -0.2917,-0.191 -0.3773,-0.064 -0.323,0.046 -0.265,0.137 0.054,-0.896 h 1.287 v -0.311 h -1.62 l -0.095,1.529 h 0.358 l 0.127,-0.095 0.127,-0.064 0.132,-0.035 0.142,-0.012 0.253,0.044 0.195,0.13 0.1253,0.2 0.0417,0.254 -0.0415,0.29 -0.1245,0.219 -0.197,0.139 -0.261,0.046 -0.3857,-0.106 -0.2053,-0.319 -0.369,0.043 0.1098,0.292 0.1992,0.214 0.2835,0.132 0.3605,0.043 z m 65.861033,-0.02 h 1.289 l 0.323,0.849 h 0.397 l -1.138,-2.88 h -0.441 l -1.157,2.88 h 0.402 z m 0.117,-0.303 0.361,-0.944 0.086,-0.242 0.081,-0.25 0.054,0.169 0.056,0.169 0.42,1.098 z m -9.605,2.716 0.753,-1.564 -0.753,-1.564 -1.6924,-0.386 -1.3569,1.082 v 1.736 l 1.3569,1.082 z m -58.269233,-2.839 h -0.396 v 0.448 h 0.396 z m 123.445233,5.483 0.404,-0.12 0.324,-0.201 0.236,-0.274 0.142,-0.339 0.047,-0.406 -0.034,-0.287 -0.1,-0.252 -0.168,-0.217 -0.227,-0.173 -0.281,-0.119 -0.335,-0.066 v -0.013 l 0.303,-0.089 0.251,-0.131 0.198,-0.172 0.144,-0.212 0.086,-0.251 0.029,-0.289 -0.045,-0.372 -0.134,-0.313 -0.224,-0.254 -0.304,-0.188 -0.376,-0.112 -0.449,-0.038 -0.416,0.037 -0.363,0.11 -0.309,0.184 -0.243,0.249 -0.164,0.306 -0.085,0.364 0.617,0.048 0.051,-0.233 0.098,-0.195 0.145,-0.158 0.186,-0.116 0.221,-0.069 0.256,-0.023 0.275,0.025 0.227,0.075 0.177,0.125 0.127,0.168 0.077,0.204 0.025,0.241 -0.031,0.242 -0.093,0.204 -0.156,0.167 -0.212,0.123 -0.263,0.073 -0.314,0.025 h -0.337 v 0.531 h 0.351 l 0.353,0.024 0.292,0.072 0.233,0.121 0.169,0.163 0.101,0.201 0.034,0.239 -0.03,0.271 -0.089,0.223 -0.148,0.174 -0.2,0.125 -0.245,0.075 -0.29,0.025 -0.532,-0.095 -0.352,-0.283 -0.173,-0.473 -0.633,0.058 0.094,0.394 0.173,0.325 0.252,0.254 0.325,0.182 0.39,0.11 0.456,0.036 z m -49.67,-0.21 0.292,-0.2 0.183,-0.314 0.062,-0.412 -0.058,-0.381 -0.174,-0.295 -0.272,-0.189 -0.353,-0.063 -0.219,0.024 -0.193,0.073 -0.16,0.118 -0.119,0.162 0.042,-0.501 0.128,-0.367 0.205,-0.225 0.276,-0.075 0.297,0.087 0.171,0.262 0.35,-0.063 -0.288,-0.437 -0.525,-0.146 -0.434,0.102 -0.321,0.305 -0.199,0.494 -0.066,0.671 0.063,0.618 0.192,0.451 0.311,0.275 0.425,0.092 z m -0.628,-0.283 -0.185,-0.162 -0.122,-0.246 -0.04,-0.308 0.039,-0.239 0.117,-0.181 0.181,-0.115 0.23,-0.038 0.24,0.043 0.181,0.13 0.114,0.208 0.038,0.281 -0.038,0.284 -0.112,0.216 -0.178,0.136 -0.233,0.045 z m -9.029,-0.026 h -1.486 l 0.08,-0.147 0.118,-0.153 0.161,-0.165 0.209,-0.184 0.353,-0.305 0.218,-0.213 0.131,-0.167 0.095,-0.167 0.057,-0.167 0.019,-0.169 -0.058,-0.338 -0.174,-0.251 -0.281,-0.155 -0.381,-0.052 -0.357,0.051 -0.285,0.152 -0.198,0.238 -0.092,0.308 0.374,0.035 0.057,-0.203 0.119,-0.153 0.17,-0.095 0.212,-0.032 0.217,0.033 0.164,0.1 0.102,0.16 0.035,0.214 -0.02,0.168 -0.06,0.15 -0.093,0.137 -0.116,0.131 -0.137,0.127 -0.315,0.262 -0.163,0.144 -0.16,0.158 -0.152,0.176 -0.137,0.198 -0.114,0.227 v 0.258 h 1.888 z m 4.529,0 h -0.696 v -2.569 h -0.337 l -0.677,0.487 v 0.345 l 0.646,-0.483 v 2.22 h -0.729 v 0.311 h 1.793 z m 2.425,-0.081 0.068,-0.379 0.112,-0.374 0.158,-0.38 0.244,-0.456 0.372,-0.602 v -0.297 h -1.884 v 0.311 h 1.531 l -0.465,0.75 -0.309,0.657 -0.173,0.596 -0.058,0.566 h 0.382 z m 4.92,0.389 0.319,-0.2 0.201,-0.317 0.067,-0.417 -0.062,-0.37 -0.188,-0.294 -0.291,-0.191 -0.378,-0.064 -0.323,0.046 -0.265,0.137 0.054,-0.896 h 1.287 v -0.311 h -1.62 l -0.095,1.529 h 0.358 l 0.127,-0.096 0.127,-0.063 0.132,-0.035 0.142,-0.012 0.253,0.044 0.195,0.13 0.126,0.2 0.041,0.254 -0.041,0.289 -0.125,0.22 -0.197,0.139 -0.261,0.046 -0.385,-0.106 -0.206,-0.319 -0.369,0.043 0.11,0.292 0.199,0.214 0.284,0.131 0.36,0.044 z m -10.168,0 0.319,-0.2 0.201,-0.317 0.067,-0.417 -0.062,-0.37 -0.188,-0.294 -0.291,-0.191 -0.378,-0.064 -0.323,0.046 -0.265,0.137 0.054,-0.896 h 1.287 v -0.311 h -1.62 l -0.095,1.529 h 0.358 l 0.127,-0.096 0.127,-0.063 0.132,-0.035 0.142,-0.012 0.253,0.044 0.195,0.13 0.126,0.2 0.041,0.254 -0.041,0.289 -0.125,0.22 -0.197,0.139 -0.261,0.046 -0.385,-0.106 -0.206,-0.319 -0.369,0.043 0.11,0.292 0.199,0.214 0.284,0.131 0.36,0.044 z m 60.913,-0.662 h 1.289 l 0.323,0.849 h 0.397 l -1.138,-2.88 h -0.441 l -1.157,2.88 h 0.402 z m 0.117,-0.303 0.361,-0.944 0.087,-0.242 0.08,-0.25 0.054,0.169 0.056,0.169 0.42,1.098 z m -9.605,2.71601 0.753,-1.56401 -0.753,-1.564 -1.692,-0.386 -1.357,1.082 v 1.736 l 1.357,1.08201 z m -47.673,-2.19601 h -0.396 v 0.448 h 0.396 z m 57.512,4.64201 0.305,-0.164 0.188,-0.264 0.063,-0.354 -0.045,-0.252 -0.133,-0.205 -0.214,-0.145 -0.284,-0.072 v -0.008 l 0.256,-0.092 0.188,-0.149 0.114,-0.205 0.039,-0.258 -0.06,-0.33001 -0.178,-0.248 -0.285,-0.156 -0.381,-0.052 -0.358,0.049 -0.285,0.148 -0.198,0.236 -0.092,0.31301 0.368,0.028 0.055,-0.2 0.117,-0.14901 0.171,-0.093 0.218,-0.031 0.231,0.035 0.167,0.106 0.1,0.16601 0.034,0.216 -0.042,0.218 -0.123,0.164 -0.198,0.104 -0.265,0.034 h -0.198 v 0.317 h 0.206 l 0.297,0.033 0.219,0.099 0.134,0.158 0.045,0.209 -0.04,0.238 -0.117,0.17 -0.186,0.103 -0.244,0.034 -0.428,-0.127 -0.191,-0.381 -0.378,0.035 0.101,0.337 0.205,0.243 0.301,0.147 0.39,0.049 z m -3.99,-0.321 h -1.486 l 0.08,-0.147 0.118,-0.153 0.161,-0.165 0.209,-0.184 0.354,-0.305 0.217,-0.213 0.131,-0.167 0.095,-0.167 0.057,-0.167 0.019,-0.169 -0.058,-0.33801 -0.174,-0.251 -0.281,-0.155 -0.381,-0.052 -0.357,0.051 -0.285,0.152 -0.198,0.238 -0.092,0.30801 0.374,0.035 0.057,-0.203 0.119,-0.15301 0.17,-0.095 0.212,-0.032 0.217,0.033 0.164,0.1 0.103,0.16001 0.034,0.214 -0.02,0.168 -0.06,0.15 -0.092,0.137 -0.117,0.131 -0.137,0.127 -0.315,0.262 -0.163,0.144 -0.16,0.158 -0.152,0.176 -0.137,0.198 -0.114,0.227 v 0.258 h 1.888 z m 9.587,0.274 0.325,-0.303 0.201,-0.492 0.067,-0.666 -0.061,-0.633 -0.184,-0.45201 -0.303,-0.271 -0.417,-0.09 -0.398,0.066 -0.3,0.199 -0.188,0.31401 -0.063,0.412 0.057,0.405 0.173,0.316 0.269,0.204 0.346,0.068 0.224,-0.027 0.206,-0.083 0.167,-0.129 0.11,-0.165 -0.049,0.482 -0.131,0.357 -0.207,0.221 -0.277,0.073 -0.306,-0.089 -0.174,-0.268 -0.349,0.055 0.115,0.272 0.173,0.184 0.235,0.106 0.3,0.035 z m -0.62,-1.258 -0.178,-0.142 -0.113,-0.224 -0.038,-0.292 0.038,-0.286 0.113,-0.22 0.179,-0.14101 0.234,-0.047 0.238,0.055 0.184,0.16401 0.118,0.254 0.039,0.325 -0.02,0.167 -0.058,0.147 -0.092,0.122 -0.12,0.09 -0.141,0.056 -0.152,0.019 z m 3.461,0.984 h -1.486 l 0.08,-0.147 0.118,-0.153 0.161,-0.165 0.209,-0.184 0.353,-0.305 0.218,-0.213 0.131,-0.167 0.095,-0.167 0.057,-0.167 0.019,-0.169 -0.058,-0.33801 -0.174,-0.251 -0.281,-0.155 -0.381,-0.052 -0.357,0.051 -0.285,0.152 -0.198,0.238 -0.092,0.30801 0.374,0.035 0.057,-0.203 0.119,-0.15301 0.17,-0.095 0.212,-0.032 0.217,0.033 0.164,0.1 0.102,0.16001 0.035,0.214 -0.02,0.168 -0.06,0.15 -0.093,0.137 -0.116,0.131 -0.137,0.127 -0.315,0.262 -0.163,0.144 -0.16,0.158 -0.152,0.176 -0.137,0.198 -0.114,0.227 v 0.258 h 1.888 z m -10.722,0.308 0.32,-0.2 0.201,-0.317 0.067,-0.417 -0.063,-0.37 -0.187,-0.294 -0.292,-0.191 -0.377,-0.064 -0.323,0.046 -0.265,0.137 0.054,-0.89601 h 1.287 v -0.311 h -1.62 l -0.095,1.52901 h 0.358 l 0.127,-0.096 0.127,-0.063 0.132,-0.035 0.142,-0.012 0.253,0.044 0.195,0.13 0.125,0.2 0.042,0.254 -0.042,0.289 -0.124,0.22 -0.197,0.139 -0.261,0.046 -0.386,-0.106 -0.205,-0.319 -0.369,0.043 0.109,0.292 0.2,0.214 0.283,0.131 0.361,0.044 z m 5.888,-0.669 h 0.402 v -0.288 h -0.402 v -1.92001 h -0.382 l -1.305,1.92401 v 0.284 h 1.341 v 0.672 h 0.346 z m -1.349,-0.288 0.032,-0.04 0.109,-0.15 0.727,-1.077 0.033,-0.053 0.086,-0.155 0.016,-0.033 v 1.508 z m -0.787,0.512 h -0.396 v 0.448 h 0.396 z m -44.493,27.014983 h 0.674 v -0.484 h -0.674 v -3.200001 h -0.648 l -2.211,3.211001 v 0.473 h 2.28 v 1.115996 h 0.579 z m -2.293,-0.484 0.055,-0.067 0.186,-0.25 1.242,-1.791 0.035,-0.053 0.045,-0.074 0.105,-0.186 0.032,-0.059 0.014,-0.029 v 2.509 z m 5.008,0.751 h 1.289 l 0.323,0.848996 h 0.397 l -1.138,-2.879996 h -0.441 l -1.157,2.879996 h 0.402 z m 0.117,-0.303 0.361,-0.944 0.087,-0.242 0.08,-0.25 0.054,0.169 0.056,0.169 0.42,1.098 z m -9.605,2.715997 0.753,-1.564001 -0.753,-1.563996 -1.692,-0.386 -1.357,1.082 v 1.735997 l 1.357,1.082 z m 161.183,3.704996 0.405,-0.12 0.324,-0.201 0.236,-0.273996 0.141,-0.339 0.048,-0.406 -0.034,-0.287 -0.101,-0.252 -0.167,-0.217 -0.228,-0.173 -0.281,-0.119 -0.334,-0.066 v -0.013 l 0.303,-0.089 0.25,-0.131 0.199,-0.172 0.144,-0.212 0.086,-0.251 0.029,-0.289 -0.045,-0.372 -0.134,-0.313 -0.224,-0.254 -0.304,-0.188001 -0.377,-0.112 -0.448,-0.038 -0.417,0.037 -0.362,0.11 -0.309,0.184001 -0.243,0.249 -0.164,0.306 -0.085,0.364 0.617,0.048 0.051,-0.233 0.098,-0.195 0.145,-0.158 0.186,-0.116 0.221,-0.069 0.256,-0.023 0.275,0.025 0.226,0.075 0.178,0.125 0.127,0.168 0.076,0.204 0.026,0.241 -0.031,0.242 -0.094,0.204 -0.155,0.167 -0.212,0.123 -0.263,0.073 -0.314,0.025 h -0.337 v 0.531 h 0.351 l 0.352,0.024 0.293,0.072 0.233,0.121 0.169,0.163 0.101,0.201 0.034,0.239 -0.03,0.271 -0.089,0.223 -0.148,0.174 -0.201,0.125 -0.245,0.075 -0.289,0.025 -0.532,-0.095 -0.353,-0.283 -0.172,-0.473 -0.633,0.058 0.094,0.394 0.173,0.325 0.252,0.253997 0.324,0.182 0.391,0.109 0.456,0.037 z m -145.695,-1.261996 0.306,-0.17 0.188,-0.273 0.063,-0.363 -0.038,-0.266 -0.114,-0.217 -0.182,-0.157 -0.243,-0.083 v -0.008 l 0.21,-0.081 0.16,-0.151 0.102,-0.202 0.034,-0.233 -0.061,-0.308 -0.183,-0.237 -0.288,-0.151 -0.376,-0.051 -0.369,0.052 -0.286,0.154 -0.182,0.237 -0.061,0.3 0.033,0.233 0.101,0.201 0.159,0.153 0.208,0.088 v 0.008 l -0.227,0.081 -0.182,0.158 -0.119,0.219 -0.04,0.265 0.064,0.365 0.194,0.271 0.308,0.167 0.407,0.056 z m -0.642,-1.704 -0.166,-0.098 -0.104,-0.161 -0.034,-0.221 0.033,-0.216 0.101,-0.155 0.164,-0.093 0.226,-0.031 0.396,0.124 0.132,0.371 -0.034,0.234 -0.1,0.158 -0.165,0.091 -0.225,0.03 z m -0.217,1.334 -0.15,-0.461 0.039,-0.236 0.116,-0.179 0.186,-0.113 0.246,-0.038 0.252,0.035 0.189,0.106 0.118,0.174 0.04,0.242 -0.036,0.281 -0.109,0.193 -0.183,0.112 -0.259,0.037 z m -9.31,0.373 0.305,-0.164 0.188,-0.264 0.063,-0.354 -0.045,-0.252 -0.133,-0.205 -0.214,-0.145 -0.284,-0.072 v -0.008 l 0.256,-0.092 0.188,-0.149 0.115,-0.205 0.038,-0.258 -0.06,-0.33 -0.178,-0.248 -0.285,-0.156 -0.381,-0.052 -0.357,0.049 -0.286,0.148 -0.198,0.236 -0.092,0.313 0.368,0.028 0.055,-0.2 0.117,-0.149 0.172,-0.093 0.217,-0.031 0.231,0.035 0.167,0.106 0.1,0.166 0.034,0.216 -0.041,0.218 -0.124,0.164 -0.198,0.104 -0.265,0.034 h -0.198 v 0.317 h 0.206 l 0.297,0.033 0.219,0.099 0.134,0.158 0.045,0.209 -0.039,0.238 -0.118,0.17 -0.186,0.103 -0.244,0.034 -0.428,-0.127 -0.191,-0.381 -0.378,0.035 0.101,0.337 0.205,0.243 0.302,0.147 0.389,0.049 z m 7.92,-0.042 0.312,-0.29 0.189,-0.472 0.063,-0.646 -0.06,-0.653 -0.18,-0.471 -0.305,-0.285 -0.438,-0.095 -0.448,0.094 -0.31,0.282 -0.179,0.47 -0.06,0.658 0.062,0.648 0.184,0.472 0.308,0.288 0.431,0.096 z m -0.707,-0.275 -0.192,-0.218 -0.111,-0.374 -0.037,-0.541 0.037,-0.553 0.109,-0.372 0.194,-0.211 0.288,-0.071 0.28,0.072 0.188,0.214 0.107,0.373 0.036,0.548 -0.037,0.534 -0.113,0.375 -0.192,0.222 -0.278,0.074 z m -4.423,-0.004 h -1.486 l 0.08,-0.147 0.118,-0.153 0.161,-0.165 0.209,-0.184 0.353,-0.305 0.218,-0.213 0.131,-0.167 0.095,-0.167 0.057,-0.167 0.019,-0.169 -0.058,-0.338 -0.174,-0.251 -0.281,-0.155 -0.381,-0.052 -0.357,0.051 -0.285,0.152 -0.198,0.238 -0.092,0.308 0.374,0.035 0.057,-0.203 0.119,-0.153 0.17,-0.095 0.212,-0.032 0.217,0.033 0.164,0.1 0.103,0.16 0.034,0.214 -0.02,0.168 -0.06,0.15 -0.092,0.137 -0.117,0.131 -0.137,0.127 -0.315,0.262 -0.163,0.144 -0.16,0.158 -0.152,0.176 -0.137,0.198 -0.114,0.227 v 0.258 h 1.888 z m 9.657,0.309 0.292,-0.2 0.183,-0.314 0.062,-0.412 -0.058,-0.381 -0.174,-0.295 -0.272,-0.189 -0.353,-0.063 -0.219,0.024 -0.193,0.073 -0.16,0.118 -0.119,0.162 0.042,-0.501 0.128,-0.367 0.205,-0.225 0.276,-0.075 0.297,0.087 0.171,0.262 0.35,-0.063 -0.288,-0.437 -0.525,-0.146 -0.434,0.102 -0.321,0.305 -0.199,0.494 -0.066,0.671 0.063,0.618 0.192,0.451 0.311,0.275 0.425,0.092 z m -0.628,-0.283 -0.185,-0.162 -0.122,-0.246 -0.04,-0.308 0.039,-0.239 0.117,-0.181 0.181,-0.115 0.23,-0.038 0.24,0.043 0.181,0.13 0.114,0.208 0.038,0.281 -0.038,0.284 -0.112,0.216 -0.178,0.136 -0.233,0.045 z m -7.323,0.282 0.32,-0.2 0.201,-0.317 0.067,-0.417 -0.063,-0.37 -0.187,-0.294 -0.292,-0.191 -0.377,-0.064 -0.323,0.046 -0.265,0.137 0.054,-0.896 h 1.287 v -0.311 h -1.62 l -0.095,1.529 h 0.358 l 0.127,-0.096 0.127,-0.063 0.132,-0.035 0.142,-0.012 0.253,0.044 0.195,0.13 0.125,0.2 0.042,0.254 -0.042,0.289 -0.124,0.22 -0.197,0.139 -0.261,0.046 -0.386,-0.106 -0.205,-0.319 -0.369,0.043 0.109,0.292 0.2,0.214 0.283,0.131 0.361,0.044 z m 155.932,1.264996 0.346,-0.142 0.284,-0.233 0.213,-0.318996 -0.317,-0.155 -0.378,0.432996 -0.527,0.144 -0.422,-0.082 -0.324,-0.245996 -0.207,-0.382 -0.068,-0.487 0.066,-0.489 0.198,-0.372 0.317,-0.236 0.424,-0.078 0.283,0.033 0.241,0.1 0.19,0.161 0.131,0.221 0.367,-0.122 -0.185,-0.309 -0.266,-0.222 -0.345,-0.134 -0.42,-0.045 -0.584,0.099 -0.441,0.297 -0.278,0.472 -0.092,0.624 0.041,0.435 0.124,0.373 0.203,0.301996 0.279,0.223 0.346,0.137 0.404,0.046 z m -110.501,2.239001 h -1.168 v -4.278997 h -0.566 l -1.134,0.765 v 0.579 l 1.083,-0.759 v 3.693997 h -1.223 v 0.521 h 3.008 z m 99.742,-0.692 0.753,-1.564001 -0.753,-1.563996 -1.692,-0.386 -1.357,1.082 v 1.735997 l 1.357,1.082 z m -143.681,-3.256997 h -0.396 v 0.448 h 0.396 z m 47.317,4.416997 0.33,-0.162 0.207,-0.257 0.069,-0.344 -0.045,-0.265 -0.138,-0.215 -0.221,-0.153 -0.3,-0.079 0.228,-0.087 0.17,-0.144 0.106,-0.193 0.035,-0.234001 -0.249,-0.52 -0.75,-0.174 h -1.032 v 2.880001 h 1.152 z m -1.202,-1.611 v -0.905001 h 0.644 l 0.261,0.025 0.191,0.075 0.118,0.132 0.039,0.198001 -0.038,0.211 -0.114,0.148 -0.189,0.087 -0.268,0.029 z m 0,1.353 v -1.05 h 0.714 l 0.527,0.129 0.175,0.386 -0.04,0.234 -0.121,0.167 -0.207,0.101 -0.304,0.033 z m -9.479,1.875 0.753,-1.564 -0.753,-1.563 -1.692,-0.387 -1.357,1.083 v 1.735 l 1.357,1.082 z m 120.272,-0.332 0.305,-0.163 0.188,-0.264 0.063,-0.354 -0.045,-0.252 -0.133,-0.205 -0.214,-0.145 -0.284,-0.072 v -0.008 l 0.256,-0.092 0.188,-0.149 0.115,-0.205 0.038,-0.258 -0.06,-0.33 -0.178,-0.248 -0.285,-0.156 -0.381,-0.052 -0.357,0.049 -0.286,0.148 -0.198,0.236 -0.092,0.313 0.368,0.028 0.055,-0.2 0.117,-0.149 0.172,-0.093 0.217,-0.031 0.231,0.035 0.167,0.106 0.1,0.165 0.034,0.217 -0.041,0.217 -0.124,0.165 -0.198,0.103 -0.265,0.035 h -0.198 v 0.317 h 0.206 l 0.297,0.033 0.219,0.099 0.134,0.158 0.045,0.209 -0.039,0.237 -0.118,0.171 -0.186,0.103 -0.244,0.034 -0.428,-0.127 -0.191,-0.381 -0.378,0.035 0.101,0.337 0.205,0.243 0.302,0.147 0.389,0.049 z m -5.7,-0.046 0.325,-0.303 0.201,-0.492 0.067,-0.666 -0.061,-0.633 -0.184,-0.452 -0.302,-0.271 -0.418,-0.09 -0.398,0.066 -0.3,0.199 -0.188,0.313 -0.063,0.413 0.058,0.405 0.172,0.316 0.27,0.204 0.345,0.068 0.225,-0.028 0.205,-0.082 0.168,-0.129 0.109,-0.165 -0.049,0.482 -0.131,0.357 -0.206,0.22 -0.278,0.074 -0.305,-0.089 -0.175,-0.268 -0.349,0.055 0.116,0.271 0.172,0.185 0.235,0.106 0.3,0.035 z m -0.62,-1.258 -0.178,-0.142 -0.113,-0.224 -0.038,-0.292 0.038,-0.286 0.113,-0.22 0.179,-0.141 0.234,-0.047 0.238,0.055 0.184,0.164 0.118,0.254 0.039,0.325 -0.019,0.166 -0.059,0.148 -0.091,0.121 -0.121,0.091 -0.14,0.056 -0.153,0.019 z m -1.588,1.304 0.305,-0.163 0.188,-0.264 0.063,-0.354 -0.045,-0.252 -0.133,-0.205 -0.214,-0.145 -0.284,-0.072 v -0.008 l 0.256,-0.092 0.188,-0.149 0.114,-0.205 0.039,-0.258 -0.06,-0.33 -0.178,-0.248 -0.285,-0.156 -0.381,-0.052 -0.358,0.049 -0.285,0.148 -0.198,0.236 -0.092,0.313 0.368,0.028 0.055,-0.2 0.117,-0.149 0.171,-0.093 0.218,-0.031 0.231,0.035 0.167,0.106 0.1,0.165 0.034,0.217 -0.042,0.217 -0.123,0.165 -0.198,0.103 -0.265,0.035 h -0.198 v 0.317 h 0.206 l 0.297,0.033 0.219,0.099 0.134,0.158 0.045,0.209 -0.04,0.237 -0.117,0.171 -0.186,0.103 -0.244,0.034 -0.428,-0.127 -0.191,-0.381 -0.378,0.035 0.101,0.337 0.205,0.243 0.301,0.147 0.39,0.049 z m 5.059,-0.32 h -0.696 v -2.569 h -0.337 l -0.677,0.487 v 0.345 l 0.646,-0.483 v 2.22 h -0.729 v 0.311 h 1.793 z m 5.325,-0.361 h 0.402 v -0.288 h -0.402 v -1.92 h -0.382 l -1.305,1.924 v 0.284 h 1.341 v 0.672 h 0.346 z m -1.349,-0.288 0.032,-0.04 0.109,-0.15 0.727,-1.077 0.032,-0.053 0.086,-0.155 0.017,-0.033 v 1.508 z m 2.969,0.568 0.067,-0.379 0.113,-0.375 0.157,-0.379 0.244,-0.456 0.372,-0.602 v -0.297 h -1.884 v 0.311 h 1.531 l -0.464,0.75 -0.31,0.657 -0.173,0.595 -0.058,0.567 h 0.382 z m -6.016,-0.056 h -0.396 v 0.448 h 0.396 z m -105.175,3.187997 0.325,-0.303 0.201,-0.492 0.067,-0.666001 -0.062,-0.632996 -0.183,-0.452 -0.303,-0.27 -0.417,-0.091 -0.398,0.067 -0.3,0.198 -0.189,0.314 -0.062,0.411996 0.057,0.405 0.173,0.316 0.269,0.204 0.346,0.068 0.224,-0.027 0.206,-0.083 0.167,-0.129 0.11,-0.165 -0.049,0.483 -0.131,0.356001 -0.207,0.221 -0.277,0.073 -0.306,-0.089 -0.174,-0.268 -0.349,0.055 0.115,0.272 0.173,0.184 0.234,0.106 0.301,0.035 z m -0.621,-1.258001 -0.177,-0.142 -0.114,-0.224 -0.037,-0.292 0.037,-0.285996 0.114,-0.22 0.178,-0.141 0.235,-0.047 0.238,0.055 0.184,0.164 0.117,0.255 0.04,0.323996 -0.02,0.167 -0.058,0.147 -0.092,0.122 -0.12,0.09 -0.141,0.057 -0.152,0.018 z m -4.447,0.984001 h -1.486 l 0.08,-0.147 0.118,-0.153 0.161,-0.165 0.209,-0.184001 0.354,-0.305 0.217,-0.213 0.132,-0.167 0.094,-0.167 0.057,-0.167 0.019,-0.168996 -0.058,-0.338 -0.174,-0.251 -0.281,-0.155 -0.381,-0.052 -0.356,0.051 -0.286,0.152 -0.197,0.238 -0.093,0.308 0.374,0.035 0.057,-0.203 0.119,-0.153 0.171,-0.095 0.211,-0.032 0.217,0.034 0.164,0.099 0.103,0.16 0.034,0.214 -0.02,0.167996 -0.06,0.15 -0.092,0.137 -0.117,0.131 -0.137,0.128 -0.315,0.261 -0.163,0.144 -0.159,0.158001 -0.153,0.176 -0.137,0.199 -0.114,0.226 v 0.258 h 1.888 z m -2.25,0 h -0.696 v -2.568997 h -0.337 l -0.677,0.487 v 0.345 l 0.646,-0.483 v 2.219997 h -0.729 v 0.311 h 1.793 z m 4.52,0 h -0.696 v -2.568997 h -0.337 l -0.677,0.487 v 0.345 l 0.646,-0.483 v 2.219997 h -0.729 v 0.311 h 1.793 z m 4.685,-0.081 0.067,-0.379 0.113,-0.374001 0.157,-0.38 0.244,-0.456 0.372,-0.601996 v -0.297 h -1.884 v 0.311 h 1.531 l -0.464,0.749996 -0.31,0.657 -0.173,0.596001 -0.058,0.566 h 0.382 z m 2.899,-0.28 h 0.402 v -0.288001 h -0.402 v -1.919996 h -0.382 l -1.305,1.923996 v 0.284001 h 1.341 v 0.672 h 0.346 z m -1.349,-0.288001 0.032,-0.04 0.109,-0.15 0.727,-1.076996 0.033,-0.053 0.086,-0.155 0.016,-0.033 v 1.507996 z m -5.306,0.512001 h -0.396 v 0.448 h 0.396 z m -231.724433,7.772997 h 0.674 v -0.484 h -0.674 v -3.200001 h -0.648 l -2.211,3.211001 v 0.473 h 2.28 v 1.116 h 0.579 z m -2.293,-0.484 0.055,-0.067 0.186,-0.25 1.242,-1.791 0.0349,-0.053 0.0446,-0.074 0.1053,-0.185001 0.0323,-0.06 0.0139,-0.029 v 2.509001 z m 6.2792,1.617 0.3458,-0.142 0.2842,-0.232 0.2128,-0.32 -0.317,-0.155 -0.3778,0.433 -0.5272,0.144 -0.4215,-0.082 -0.3245,-0.246 -0.2063,-0.382 -0.0687,-0.487 0.066,-0.489 0.198,-0.372 0.3177,-0.235 0.4233,-0.079 0.283,0.033 0.241,0.1 0.1907,0.162 0.1303,0.22 0.367,-0.122 -0.1848,-0.309 -0.2662,-0.222 -0.3448,-0.134 -0.4202,-0.045 -0.5838,0.099 -0.4412,0.297 -0.2775,0.472 -0.0925,0.624 0.0412,0.435 0.1238,0.373 0.2035,0.302 0.2785,0.223 0.346,0.137 0.404,0.046 z m -10.7592,1.546997 0.753,-1.563997 -0.753,-1.564 -1.692,-0.386 -1.3569,1.082 v 1.735996 l 1.3569,1.082001 z m 5.3195,2.446 0.3045,-0.164 0.1882,-0.264 0.0628,-0.354 -0.0445,-0.252 -0.1335,-0.205 -0.2135,-0.145 -0.2845,-0.072 v -0.008 l 0.2565,-0.092 0.1875,-0.149 0.1147,-0.205 0.0383,-0.258 -0.0595,-0.33 -0.1785,-0.248001 -0.285,-0.156 -0.381,-0.052 -0.3573,0.049 -0.2857,0.148 -0.1975,0.236001 -0.0925,0.313 0.368,0.028 0.055,-0.2 0.117,-0.149 0.1717,-0.093 0.2173,-0.031 0.2315,0.035 0.1665,0.106 0.1005,0.166 0.0335,0.216 -0.0413,0.218 -0.1237,0.164 -0.1978,0.104 -0.2652,0.034 h -0.198 v 0.317 h 0.206 l 0.2975,0.033 0.2185,0.099 0.1342,0.158 0.0448,0.209 -0.0393,0.238 -0.1177,0.17 -0.1855,0.103 -0.2445,0.034 -0.4278,-0.127 -0.1912,-0.381 -0.378,0.035 0.101,0.337 0.205,0.243 0.3017,0.147 0.3893,0.049 z m 10.1797,-0.042 0.3118,-0.29 0.189,-0.472 0.063,-0.646 -0.0601,-0.653 -0.1799,-0.471 -0.3053,-0.285001 -0.4377,-0.095 -0.4485,0.094 -0.3096,0.282001 -0.1792,0.47 -0.0598,0.658 0.0616,0.648 0.1844,0.472 0.3083,0.288 0.4307,0.096 z m -0.707,-0.275 -0.1923,-0.218 -0.1109,-0.374 -0.0371,-0.541 0.0365,-0.553 0.1095,-0.372 0.194,-0.211 0.2881,-0.071 0.28,0.072 0.188,0.214 0.1072,0.373 0.0357,0.548 -0.0374,0.534 -0.1125,0.375 -0.192,0.222 -0.278,0.074 z m -1.5888,0.304 0.3198,-0.2 0.201,-0.317 0.067,-0.417 -0.0625,-0.37 -0.1875,-0.294 -0.2918,-0.191 -0.3772,-0.064 -0.323,0.046 -0.265,0.137 0.054,-0.896 h 1.287 v -0.311001 h -1.62 l -0.095,1.529001 h 0.358 l 0.127,-0.096 0.127,-0.063 0.132,-0.035 0.142,-0.012 0.253,0.044 0.195,0.13 0.1252,0.2 0.0418,0.254 -0.0415,0.289 -0.1245,0.22 -0.197,0.139 -0.261,0.046 -0.3858,-0.106 -0.2052,-0.319 -0.369,0.043 0.1097,0.292 0.1993,0.214 0.2835,0.131 0.3605,0.044 z m 4.1198,-0.389 0.0675,-0.379 0.1125,-0.374 0.1575,-0.38 0.244,-0.456 0.372,-0.602 v -0.297001 h -1.884 v 0.311001 h 1.531 l -0.4645,0.75 -0.3095,0.657 -0.1732,0.596 -0.0578,0.566 h 0.382 z m -9.7682,0.389 0.3198,-0.2 0.2009,-0.317 0.067,-0.417 -0.0625,-0.37 -0.1875,-0.294 -0.2917,-0.191 -0.3772,-0.064 -0.3231,0.046 -0.265,0.137 0.054,-0.896 h 1.287 v -0.311001 h -1.6199 l -0.0951,1.529001 h 0.3581 l 0.1269,-0.096 0.127,-0.063 0.1321,-0.035 0.142,-0.012 0.2529,0.044 0.195,0.13 0.1253,0.2 0.0418,0.254 -0.0415,0.289 -0.1245,0.22 -0.1971,0.139 -0.261,0.046 -0.3857,-0.106 -0.2053,-0.319 -0.369,0.043 0.1098,0.292 0.1992,0.214 0.2836,0.131 0.3604,0.044 z m 1.86,-0.389 0.0675,-0.379 0.1125,-0.374 0.1575,-0.38 0.244,-0.456 0.372,-0.602 v -0.297001 h -1.884 v 0.311001 h 1.531 l -0.4645,0.75 -0.3095,0.657 -0.1732,0.596 -0.0578,0.566 h 0.382 z m 1.8923,-0.056 h -0.396 v 0.448 h 0.396 z m 105.0824,9.167994 0.42,-0.211 0.3298,-0.351 0.2372,-0.484001 0.1423,-0.611 0.0475,-0.736996 -0.0451,-0.747 -0.1354,-0.614 -0.2255,-0.481 -0.3205,-0.346 -0.42,-0.207 -0.5195,-0.069 -0.5329,0.068 -0.428,0.205 -0.3231,0.342 -0.2256,0.479 -0.1353,0.616 -0.0451,0.754 0.0464,0.739996 0.1394,0.612 0.2322,0.484001 0.3248,0.349 0.417,0.209 0.5092,0.07 z m -0.8374,-0.483 -0.268,-0.158 -0.2018,-0.262001 -0.1406,-0.375 -0.0843,-0.497 -0.0281,-0.618996 0.0276,-0.634 0.0831,-0.503 0.1383,-0.371 0.2024,-0.255 0.274,-0.153 0.3456,-0.051 0.3369,0.052 0.2666,0.155 0.1965,0.259 0.135,0.373 0.081,0.501 0.027,0.627 -0.0284,0.607996 -0.0849,0.494 -0.1417,0.379 -0.2025,0.268001 -0.2673,0.16 -0.3322,0.054 z m 4.1192,-0.36 h 1.289 l 0.323,0.849 h 0.397 l -1.138,-2.879997 h -0.441 l -1.157,2.879997 h 0.402 z m 0.117,-0.303001 0.361,-0.943996 0.0867,-0.242 0.0803,-0.25 0.054,0.169 0.0562,0.169 0.4198,1.097996 z m -9.605,2.716001 0.753,-1.564 -0.753,-1.564001 -1.692,-0.386 -1.3569,1.082 v 1.736001 l 1.3569,1.082 z m 17.7662,2.433996 0.2915,-0.2 0.1838,-0.314 0.0612,-0.411996 -0.058,-0.381 -0.174,-0.295 -0.2717,-0.189 -0.3533,-0.063 -0.219,0.024 -0.193,0.073 -0.1597,0.118 -0.1193,0.162 0.0425,-0.501 0.1275,-0.367 0.2058,-0.225 0.2752,-0.075 0.2975,0.087 0.1705,0.262 0.35,-0.063 -0.2872,-0.437 -0.5258,-0.146 -0.4337,0.102 -0.3213,0.305 -0.1987,0.494 -0.0663,0.671 0.0638,0.618 0.1912,0.450996 0.3115,0.275 0.4245,0.092 z m -0.6277,-0.283 -0.1858,-0.162 -0.1215,-0.246 -0.0405,-0.307996 0.039,-0.239 0.117,-0.181 0.1813,-0.115 0.2297,-0.038 0.2403,0.043 0.1807,0.13 0.114,0.208 0.038,0.281 -0.0375,0.283996 -0.1125,0.216 -0.1772,0.136 -0.2338,0.045 z m -3.3813,-0.026 h -1.486 l 0.08,-0.147 0.118,-0.153 0.161,-0.164996 0.209,-0.184 0.3537,-0.305 0.2173,-0.213 0.1315,-0.167 0.0945,-0.167 0.057,-0.167 0.019,-0.169 -0.058,-0.338 -0.174,-0.251 -0.281,-0.155 -0.381,-0.052 -0.3565,0.051 -0.2855,0.152 -0.1975,0.238 -0.0925,0.308 0.374,0.035 0.057,-0.203 0.119,-0.153 0.1705,-0.095 0.2115,-0.032 0.2172,0.033 0.1638,0.1 0.1027,0.16 0.0343,0.214 -0.02,0.168 -0.06,0.15 -0.0923,0.137 -0.1167,0.131 -0.137,0.127 -0.3148,0.262 -0.1632,0.144 -0.1595,0.158 -0.1525,0.175996 -0.1368,0.198 -0.1142,0.227 v 0.258 h 1.888 z m -3.9424,0.308 0.3197,-0.2 0.201,-0.317 0.067,-0.416996 -0.0625,-0.37 -0.1875,-0.294 -0.2917,-0.191 -0.3773,-0.064 -0.323,0.046 -0.265,0.137 0.054,-0.896 h 1.287 v -0.311 h -1.62 l -0.095,1.529 h 0.358 l 0.127,-0.096 0.127,-0.063 0.132,-0.035 0.142,-0.012 0.253,0.044 0.195,0.13 0.1253,0.2 0.0417,0.254 -0.0415,0.288996 -0.1245,0.22 -0.197,0.139 -0.261,0.046 -0.3857,-0.106 -0.2053,-0.319 -0.369,0.043 0.1098,0.292 0.1992,0.214 0.2835,0.131 0.3605,0.044 z m 5.2486,-0.389 0.0676,-0.378996 0.1125,-0.374 0.1575,-0.38 0.244,-0.456 0.372,-0.602 v -0.297 h -1.884 v 0.311 h 1.531 l -0.4646,0.75 -0.3094,0.657 -0.1733,0.595996 -0.0577,0.566 h 0.382 z m -7.9082,0 0.0675,-0.378996 0.1126,-0.374 0.1575,-0.38 0.244,-0.456 0.372,-0.602 v -0.297 h -1.8841 v 0.311 h 1.5311 l -0.4646,0.75 -0.3094,0.657 -0.1733,0.595996 -0.0578,0.566 h 0.3821 z m -1.2962,0.081 h -0.696 v -2.568996 h -0.337 l -0.677,0.487 v 0.345 l 0.646,-0.483 v 2.219996 h -0.729 v 0.311 h 1.793 z m 5.4483,-0.137 h -0.396 v 0.448 h 0.396 z m 119.182633,24.984589 0.404,-0.1203 0.324,-0.2006 0.236,-0.2736 0.142,-0.3397 0.047,-0.4057 -0.033,-0.2866 -0.101,-0.252 -0.168,-0.2174 -0.227,-0.1731 -0.281,-0.1193 -0.335,-0.0656 v -0.013 l 0.303,-0.0893 0.251,-0.1307 0.198,-0.172 0.144,-0.212001 0.086,-0.2506 0.029,-0.2894 -0.045,-0.3719 -0.134,-0.312996 -0.224,-0.2541 -0.304,-0.1878 -0.376,-0.1126 -0.449,-0.0376 -0.416,0.0368 -0.363,0.1103 -0.309,0.1839 -0.242,0.2488 -0.164,0.306296 -0.086,0.3639 0.617,0.048 0.051,-0.2331 0.098,-0.1953 0.145,-0.157596 0.186,-0.1155 0.221,-0.0694 0.256,-0.0231 0.276,0.025 0.226,0.075 0.177,0.125 0.127,0.168096 0.077,0.2044 0.025,0.2405 -0.031,0.2419 -0.093,0.2043 -0.156,0.166801 -0.212,0.1228 -0.263,0.0737 -0.314,0.0245 h -0.337 v 0.530999 h 0.351 l 0.353,0.0241 0.293,0.0724 0.232,0.1205 0.169,0.163001 0.101,0.201 0.034,0.239 -0.029,0.2711 -0.089,0.2227 -0.149,0.1742 -0.2,0.125 -0.245,0.075 -0.29,0.025 -0.532,-0.0945 -0.352,-0.2837 -0.173,-0.4728 -0.633,0.058 0.094,0.3943 0.173,0.3244 0.252,0.2543 0.325,0.1822 0.39,0.1094 0.456,0.0364 z m 4.362,-0.0684 0.341,-0.1335 0.281,-0.217 0.209,-0.295 0.13,-0.362 0.043,-0.418 -0.099,-0.5987 -0.297,-0.4443 -0.478,-0.2752 -0.645,-0.0918 h -0.948 v 2.88 h 1.072 z m -1.075,-0.2665 v -2.258 h 0.551 l 0.489,0.0705 0.357,0.2115 0.219,0.3448 0.073,0.4722 -0.032,0.3333 -0.096,0.2857 -0.156,0.2313 -0.212,0.1697 -0.258,0.1043 -0.296,0.0347 z m -9.483,1.874697 0.753,-1.563697 -0.753,-1.5636 -1.692,-0.3862 -1.357,1.082 v 1.7356 l 1.357,1.082097 z m 15.507,2.4338 0.291,-0.1995 0.184,-0.3145 0.061,-0.4115 -0.058,-0.3815 -0.174,-0.2945 -0.272,-0.189 -0.353,-0.063 -0.219,0.0243 -0.193,0.0727 -0.16,0.118 -0.119,0.162 0.043,-0.501 0.127,-0.367 0.206,-0.225 0.275,-0.075 0.298,0.0873 0.17,0.2617 0.35,-0.063 -0.287,-0.437197 -0.526,-0.1458 -0.434,0.1018 -0.321,0.305197 -0.199,0.4943 -0.066,0.6707 0.064,0.6183 0.191,0.4507 0.312,0.2753 0.424,0.0917 z m -0.628,-0.2825 -0.186,-0.162 -0.121,-0.2465 -0.041,-0.3075 0.039,-0.239 0.117,-0.181 0.181,-0.1147 0.23,-0.0383 0.24,0.0433 0.181,0.1297 0.114,0.2083 0.038,0.2807 -0.037,0.284 -0.113,0.216 -0.177,0.1358 -0.234,0.0452 z m -5.028,0.2525 0.312,-0.2895 0.189,-0.4725 0.063,-0.6455 -0.06,-0.6535 -0.18,-0.4705 -0.305,-0.284997 -0.438,-0.095 -0.449,0.094 -0.309,0.281997 -0.179,0.4695 -0.06,0.6585 0.061,0.648 0.185,0.472 0.308,0.288 0.431,0.096 z m -0.707,-0.275 -0.192,-0.2175 -0.111,-0.3737 -0.037,-0.5413 0.036,-0.5532 0.11,-0.3718 0.194,-0.2115 0.288,-0.0705 0.28,0.0715 0.188,0.2145 0.107,0.3728 0.036,0.5482 -0.038,0.5338 -0.112,0.3752 -0.192,0.222 -0.278,0.074 z m -1.616,0.2705 0.325,-0.303 0.201,-0.492 0.067,-0.666 -0.061,-0.6332 -0.184,-0.4518 -0.303,-0.270697 -0.417,-0.0903 -0.398,0.0663 -0.3,0.198697 -0.188,0.3135 -0.063,0.4125 0.057,0.4048 0.173,0.3162 0.269,0.204 0.346,0.068 0.224,-0.0275 0.206,-0.0825 0.167,-0.129 0.11,-0.165 -0.049,0.4823 -0.131,0.3567 -0.207,0.2205 -0.277,0.0735 -0.306,-0.0892 -0.174,-0.2678 -0.349,0.055 0.116,0.2715 0.172,0.1845 0.235,0.1058 0.3,0.0352 z m -0.62,-1.2582 -0.178,-0.1418 -0.113,-0.224 -0.038,-0.292 0.038,-0.286 0.113,-0.22 0.179,-0.141 0.234,-0.047 0.238,0.0548 0.184,0.1642 0.118,0.2543 0.039,0.3247 -0.019,0.1665 -0.059,0.1475 -0.092,0.1215 -0.12,0.0905 -0.141,0.0563 -0.152,0.0187 z m -1.059,0.9842 h -1.486 l 0.08,-0.147 0.118,-0.153 0.161,-0.1652 0.209,-0.1838 0.354,-0.305 0.217,-0.213 0.132,-0.167 0.094,-0.167 0.057,-0.1675 0.019,-0.1685 -0.058,-0.3382 -0.174,-0.2508 -0.281,-0.155197 -0.381,-0.0518 -0.356,0.0508 -0.286,0.152197 -0.197,0.238 -0.093,0.308 0.374,0.035 0.057,-0.2035 0.119,-0.1525 0.171,-0.0952 0.211,-0.0318 0.217,0.0333 0.164,0.0997 0.103,0.16 0.034,0.214 -0.02,0.168 -0.06,0.15 -0.092,0.137 -0.117,0.131 -0.137,0.1273 -0.315,0.2612 -0.163,0.1445 -0.159,0.158 -0.153,0.176 -0.137,0.1983 -0.114,0.2267 v 0.258 h 1.888 z m 6.955,-0.0812 0.067,-0.3788 0.113,-0.3745 0.157,-0.3795 0.244,-0.456 0.372,-0.602 v -0.296997 h -1.884 v 0.310997 h 1.531 l -0.464,0.7498 -0.31,0.6572 -0.173,0.5955 -0.058,0.5665 h 0.382 z m 5.483,0.0812 h -0.696 v -2.568997 h -0.337 l -0.677,0.486997 v 0.345 l 0.646,-0.483 v 2.22 h -0.729 v 0.311 h 1.793 z m -6.979,-0.137 h -0.396 v 0.448 h 0.396 z m -11.015,27.101583 0.42,-0.2107 0.33,-0.3511 0.237,-0.4845 0.142,-0.6106 0.048,-0.7368997 -0.045,-0.746897 -0.136,-0.614 -0.225,-0.4811 -0.321,-0.3456 -0.42,-0.2073 -0.519,-0.0691 -0.533,0.0683 -0.428,0.205 -0.323,0.3417 -0.226,0.4787 -0.135,0.6164 -0.045,0.753897 0.046,0.7403997 0.14,0.612 0.232,0.4836 0.325,0.3489 0.417,0.2093 0.509,0.0698 z m -0.837,-0.4833 -0.268,-0.1573 -0.202,-0.2622 -0.141,-0.3755 -0.084,-0.497 -0.028,-0.6184997 0.027,-0.634197 0.083,-0.5027 0.139,-0.3711 0.202,-0.255 0.274,-0.153 0.346,-0.051 0.337,0.0517 0.266,0.1554 0.197,0.2589 0.135,0.3734 0.081,0.5003 0.027,0.627297 -0.029,0.6080997 -0.085,0.4936 -0.141,0.3793 -0.203,0.2677 -0.267,0.1607 -0.332,0.0536 z m 5.312,0.4357 0.33,-0.1612 0.207,-0.2578 0.069,-0.3432 -0.046,-0.265 -0.137,-0.215 -0.222,-0.1535 -0.299,-0.0785 0.228,-0.0873 0.17,-0.1437 0.106,-0.1932997 0.035,-0.2337 -0.25,-0.5205 -0.749,-0.1735 h -1.032 v 2.8799997 h 1.152 z m -1.202,-1.6102 V 9.3633173 h 0.644 l 0.261,0.025 0.191,0.075 0.118,0.132 0.039,0.198 -0.038,0.2106997 -0.114,0.1483 -0.19,0.087 -0.267,0.029 z m 0,1.353 v -1.05 h 0.714 l 0.526,0.1287 0.176,0.3863 -0.04,0.2332 -0.121,0.1678 -0.208,0.1005 -0.303,0.0335 z m -9.479,1.8746 0.753,-1.5636 -0.753,-1.5637 -1.692,-0.3861997 -1.357,1.0820997 v 1.7355 l 1.357,1.0821 z m 5.849,2.125397 h -1.486 l 0.08,-0.147 0.118,-0.153 0.161,-0.1653 0.209,-0.1837 0.354,-0.305 0.217,-0.213 0.131,-0.167 0.095,-0.166997 0.057,-0.1675 0.019,-0.1685 -0.058,-0.3383 -0.174,-0.2507 -0.281,-0.1553 -0.381,-0.0517 -0.357,0.0507 -0.285,0.1523 -0.198,0.238 -0.092,0.308 0.374,0.035 0.057,-0.2035 0.119,-0.1525 0.17,-0.0953 0.212,-0.0317 0.217,0.0332 0.164,0.0998 0.103,0.16 0.034,0.214 -0.02,0.168 -0.06,0.15 -0.092,0.137 -0.117,0.130997 -0.137,0.1272 -0.315,0.2613 -0.163,0.1445 -0.16,0.158 -0.152,0.176 -0.137,0.1982 -0.114,0.2268 v 0.258 h 1.888 z m 7.39,0.2785 0.312,-0.2895 0.189,-0.4725 0.063,-0.6455 -0.06,-0.653497 -0.18,-0.4705 -0.305,-0.285 -0.438,-0.095 -0.449,0.094 -0.309,0.282 -0.179,0.4695 -0.06,0.658497 0.061,0.648 0.185,0.472 0.308,0.288 0.431,0.096 z m -0.707,-0.275 -0.192,-0.2175 -0.111,-0.3738 -0.037,-0.5412 0.036,-0.553297 0.11,-0.3717 0.194,-0.2115 0.288,-0.0705 0.28,0.0715 0.188,0.2145 0.107,0.3727 0.036,0.548297 -0.038,0.5337 -0.112,0.3753 -0.192,0.222 -0.278,0.074 z m -169.600533,1.0643 h 0.674 v -0.484 h -0.674 v -3.199997 h -0.648 l -2.211,3.210997 v 0.473 h 2.28 v 1.1159 h 0.579 z m -2.293,-0.484 0.055,-0.067 0.18599,-0.25 1.24201,-1.790997 0.0349,-0.0532 0.0447,-0.074 0.1052,-0.1854 0.0323,-0.0597 0.0139,-0.0287 v 2.508997 z m 175.064533,-0.9448 h 0.402 v -0.288 h -0.402 v -1.919997 h -0.382 l -1.305,1.923997 v 0.284 h 1.341 v 0.672 h 0.346 z m -1.349,-0.288 0.032,-0.04 0.109,-0.15 0.727,-1.076997 0.032,-0.053 0.086,-0.1553 0.017,-0.0327 v 1.507997 z m 3.369,0.9572 0.32,-0.2002 0.201,-0.3175 0.067,-0.4165 -0.063,-0.3705 -0.187,-0.2935 -0.292,-0.191297 -0.377,-0.0637 -0.323,0.0457 -0.265,0.1373 0.054,-0.896 h 1.287 v -0.311 h -1.62 l -0.095,1.528997 h 0.358 l 0.127,-0.0958 0.127,-0.0632 0.132,-0.0353 0.142,-0.0117 0.253,0.0435 0.195,0.1305 0.125,0.2 0.042,0.254 -0.042,0.2892 -0.124,0.2198 -0.197,0.1387 -0.261,0.0463 -0.386,-0.1063 -0.205,-0.3187 -0.369,0.043 0.109,0.292 0.2,0.214 0.283,0.1312 0.361,0.0438 z m -7.345,-0.3082 h -0.696 v -2.568997 h -0.337 l -0.677,0.487 v 0.345 l 0.646,-0.483 v 2.219997 h -0.729 v 0.311 h 1.793 z m -2.823,0.3082 0.32,-0.2002 0.201,-0.3175 0.067,-0.4165 -0.063,-0.3705 -0.187,-0.2935 -0.292,-0.191297 -0.377,-0.0637 -0.323,0.0457 -0.265,0.1373 0.054,-0.896 h 1.287 v -0.311 h -1.62 l -0.095,1.528997 h 0.358 l 0.127,-0.0958 0.127,-0.0632 0.132,-0.0353 0.142,-0.0117 0.253,0.0435 0.195,0.1305 0.125,0.2 0.042,0.254 -0.042,0.2892 -0.124,0.2198 -0.197,0.1387 -0.261,0.0463 -0.386,-0.1063 -0.205,-0.3187 -0.369,0.043 0.109,0.292 0.2,0.214 0.283,0.1312 0.361,0.0438 z m -141.092633,2.2539 h -2.524 l 0.0831,-0.1608 0.112,-0.165 0.1409,-0.1692 0.1739,-0.1783 0.2096,-0.192 0.2455,-0.2057 0.4271,-0.3517 0.324,-0.2843 0.2209,-0.217 0.1554,-0.1839 0.1277,-0.1837 0.0999,-0.1834 0.0716,-0.1844 0.043,-0.185 0.0144,-0.1856 -0.0437,-0.3875 -0.131,-0.3236 -0.2183,-0.259897 -0.2989,-0.19 -0.374,-0.114 -0.4491,-0.038 -0.417,0.0378 -0.363,0.1137 -0.309,0.1895 -0.2427,0.252797 -0.164,0.3054 -0.0853,0.3578 0.627,0.058 0.0534,-0.2376 0.1004,-0.1993 0.1472,-0.1611 0.1868,-0.1184 0.2176,-0.071 0.2486,-0.0236 0.2576,0.0242 0.217,0.0726 0.1764,0.1212 0.13,0.1643 0.078,0.2037 0.026,0.243 -0.0151,0.1884 -0.0454,0.1747 -0.0755,0.1609 -0.0995,0.1517 -0.1183,0.1474 -0.1372,0.1429 -0.1526,0.1406 -0.1643,0.1407 -0.3587,0.2853 -0.1836,0.1527 -0.1848,0.1607 -0.1826,0.1705 -0.177,0.1837 -0.1714,0.1968 -0.1595,0.2131 -0.1423,0.234 -0.1252,0.2549 v 0.432 h 3.198 z m -19.6229,-0.4321 0.33,-0.1612 0.207,-0.2578 0.069,-0.3432 -0.0458,-0.265 -0.1372,-0.215 -0.2218,-0.1535 -0.2992,-0.0786 0.228,-0.0872 0.17,-0.1437 0.1057,-0.1933 0.0353,-0.2337 -0.2497,-0.5205 -0.7493,-0.1735 h -1.032 v 2.8799 h 1.152 z m -1.202,-1.6102 v -0.905 h 0.644 l 0.261,0.025 0.191,0.075 0.1177,0.132 0.0393,0.198 -0.038,0.2107 -0.114,0.1482 -0.1898,0.0871 -0.2672,0.029 z m 0,1.353 v -1.05 h 0.714 l 0.5265,0.1287 0.1755,0.3863 -0.0402,0.2332 -0.1208,0.1678 -0.2078,0.1005 -0.3032,0.0335 z m 165.669533,-2.0098 h -0.396 v 0.448 h 0.396 z m -141.591133,3.1756 0.3415,-0.1335 0.281,-0.217 0.209,-0.295 0.1297,-0.362 0.0433,-0.418 -0.099,-0.5988 -0.297,-0.4442 -0.4783,-0.2753 -0.6447,-0.0917 h -0.948 v 2.88 h 1.072 z m -1.0745,-0.2665 v -2.258 h 0.551 l 0.4885,0.0705 0.3575,0.2115 0.219,0.3447 0.073,0.4723 -0.032,0.3332 -0.096,0.2858 -0.156,0.2312 -0.212,0.1698 -0.258,0.1042 -0.296,0.0348 z m -32.48292,0.9753 0.75303,-1.5637 -0.75303,-1.5636 -1.692011,-0.3862 -1.356891,1.0821 v 1.7355 l 1.356891,1.082097 z m 22.99992,0.899297 0.753,-1.563597 -0.753,-1.5637 -1.6921,-0.3862 -1.3568,1.0821 v 1.735497 l 1.3568,1.0821 z m 40.2285,2.562 0.42,-0.2107 0.3298,-0.3511 0.2372,-0.4844 0.1424,-0.6107 0.0474,-0.7369 -0.0451,-0.7469 -0.1353,-0.613997 -0.2256,-0.4811 -0.3204,-0.3455 -0.42,-0.2074 -0.5196,-0.0691 -0.5329,0.0684 -0.428,0.205 -0.3231,0.3416 -0.2256,0.4788 -0.1353,0.616297 -0.0451,0.7539 0.0464,0.7405 0.1394,0.612 0.2322,0.4835 0.3248,0.3489 0.417,0.2093 0.5092,0.0698 z m -0.8374,-0.4832 -0.268,-0.1574 -0.2018,-0.2622 -0.1406,-0.3754 -0.0843,-0.497 -0.0281,-0.6186 0.0277,-0.6342 0.083,-0.502697 0.1383,-0.3711 0.2024,-0.255 0.274,-0.153 0.3456,-0.051 0.3369,0.0518 0.2667,0.1553 0.1964,0.2589 0.135,0.3735 0.081,0.500297 0.027,0.6272 -0.0283,0.6081 -0.085,0.4937 -0.1417,0.3792 -0.2024,0.2678 -0.2674,0.1607 -0.3322,0.0535 z m -57.0715,-0.5323 0.3045,-0.1634 0.1883,-0.2641 0.0627,-0.3539 -0.0445,-0.2518 -0.1335,-0.2052 -0.2135,-0.1453 -0.2845,-0.0718 v -0.008 l 0.2565,-0.0918 0.1875,-0.1492 0.1148,-0.2048 0.0382,-0.2582 -0.0595,-0.329997 -0.1785,-0.248 -0.285,-0.1561 -0.381,-0.0519 -0.35726,0.0492 -0.28575,0.1478 -0.19749,0.2357 -0.0925,0.313197 0.368,0.028 0.055,-0.199697 0.11699,-0.1492 0.17176,-0.0931 0.21725,-0.0309 0.2315,0.0352 0.1665,0.1057 0.1005,0.1656 0.0335,0.216497 -0.0412,0.2175 -0.1238,0.1645 -0.1977,0.1035 -0.26531,0.0345 h -0.198 v 0.317 h 0.20601 l 0.2975,0.0329 0.2185,0.0991 0.1342,0.1577 0.0448,0.2093 -0.0393,0.2375 -0.1177,0.1705 -0.1855,0.1027 -0.2445,0.0342 -0.42774,-0.1269 -0.19126,-0.381 -0.378,0.035 0.10099,0.3369 0.20501,0.2431 0.30175,0.1469 0.38925,0.049 z m 8.4377,-0.3204 h -1.486 l 0.08,-0.147 0.118,-0.153 0.161,-0.1653 0.209,-0.1837 0.3537,-0.3051 0.2173,-0.2129 0.1315,-0.167 0.0945,-0.167 0.057,-0.1675 0.019,-0.1685 -0.058,-0.338297 -0.174,-0.2508 -0.281,-0.1552 -0.381,-0.0517 -0.3565,0.0507 -0.2855,0.1523 -0.1975,0.238 -0.0925,0.307997 0.374,0.035 0.057,-0.203497 0.119,-0.1525 0.1705,-0.0953 0.2115,-0.0317 0.2172,0.0332 0.1638,0.0998 0.1028,0.16 0.0342,0.213997 -0.02,0.168 -0.06,0.15 -0.0922,0.1369 -0.1168,0.1311 -0.137,0.1272 -0.3147,0.2612 -0.1633,0.1445 -0.1595,0.1581 -0.1525,0.1759 -0.1368,0.1983 -0.1142,0.2268 v 0.2579 h 1.888 z m 1.7303,0.3204 0.3045,-0.1634 0.1882,-0.2641 0.0628,-0.3539 -0.0445,-0.2518 -0.1335,-0.2052 -0.2135,-0.1453 -0.2845,-0.0718 v -0.008 l 0.2565,-0.0918 0.1875,-0.1492 0.1147,-0.2048 0.0383,-0.2582 -0.0595,-0.329997 -0.1785,-0.248 -0.285,-0.1561 -0.381,-0.0519 -0.3573,0.0492 -0.2857,0.1478 -0.1975,0.2357 -0.0925,0.313197 0.368,0.028 0.055,-0.199697 0.117,-0.1492 0.1717,-0.0931 0.2173,-0.0309 0.2315,0.0352 0.1665,0.1057 0.1005,0.1656 0.0335,0.216497 -0.0413,0.2175 -0.1237,0.1645 -0.1978,0.1035 -0.2652,0.0345 h -0.198 v 0.317 h 0.206 l 0.2975,0.0329 0.2185,0.0991 0.1342,0.1577 0.0448,0.2093 -0.0393,0.2375 -0.1177,0.1705 -0.1855,0.1027 -0.2445,0.0342 -0.4278,-0.1269 -0.1912,-0.381 -0.378,0.035 0.101,0.3369 0.205,0.2431 0.3017,0.1469 0.3893,0.049 z m -6.0725,-0.4017 0.0675,-0.3787 0.1125,-0.3745 0.1575,-0.3795 0.244,-0.456 0.372,-0.601997 v -0.297 h -1.884 v 0.311 h 1.531 l -0.4645,0.749697 -0.3095,0.6573 -0.1732,0.5955 -0.0578,0.5664 h 0.382 z m -1.6202,-0.2797 h 0.402 v -0.288 h -0.402 v -1.919997 h -0.382 l -1.305,1.923997 v 0.284 h 1.341 v 0.6719 h 0.346 z m -1.349,-0.288 0.032,-0.0401 0.109,-0.1499 0.727,-1.077 0.0325,-0.0531 0.0862,-0.1552 0.0163,-0.0327 v 1.507997 z m 10.8774,0.5677 0.0675,-0.3787 0.1125,-0.3745 0.1575,-0.3795 0.244,-0.456 0.372,-0.601997 v -0.297 h -1.884 v 0.311 h 1.531 l -0.4645,0.749697 -0.3095,0.6573 -0.1732,0.5955 -0.0578,0.5664 h 0.382 z m 23.4239,1.301 0.3045,-0.1634 0.1883,-0.264 0.0627,-0.354 -0.0445,-0.2518 -0.1335,-0.2052 -0.2135,-0.1453 -0.2845,-0.0717 v -0.008 l 0.2565,-0.0918 0.1875,-0.1492 0.1147,-0.2048 0.0383,-0.2582 -0.0595,-0.33 -0.1785,-0.248 -0.285,-0.156 -0.381,-0.052 -0.3573,0.0492 -0.2857,0.1478 -0.1975,0.2357 -0.0925,0.3133 0.368,0.028 0.055,-0.1998 0.117,-0.1492 0.1717,-0.093 0.2173,-0.031 0.2315,0.0352 0.1665,0.1058 0.1005,0.1655 0.0335,0.2165 -0.0412,0.2175 -0.1238,0.1645 -0.1978,0.1035 -0.2652,0.0345 h -0.198 v 0.317 h 0.206 l 0.2975,0.033 0.2185,0.099 0.1342,0.1577 0.0448,0.2093 -0.0393,0.2375 -0.1177,0.1705 -0.1855,0.1027 -0.2445,0.0343 -0.4277,-0.127 -0.1913,-0.381 -0.378,0.035 0.101,0.337 0.205,0.243 0.3018,0.147 0.3892,0.049 z m -7.3787,-0.3204 h -1.486 l 0.08,-0.147 0.118,-0.153 0.161,-0.1653 0.209,-0.1837 0.3537,-0.305 0.2173,-0.213 0.1315,-0.167 0.0945,-0.167 0.057,-0.1675 0.019,-0.1685 -0.058,-0.3383 -0.174,-0.2507 -0.281,-0.1553 -0.381,-0.0517 -0.3565,0.0507 -0.2855,0.1523 -0.1975,0.238 -0.0925,0.308 0.374,0.035 0.057,-0.2035 0.119,-0.1525 0.1705,-0.0953 0.2115,-0.0317 0.2172,0.0332 0.1638,0.0998 0.1027,0.16 0.0343,0.214 -0.02,0.168 -0.06,0.15 -0.0923,0.137 -0.1167,0.131 -0.137,0.1272 -0.3147,0.2613 -0.1633,0.1445 -0.1595,0.158 -0.1525,0.176 -0.1367,0.1982 -0.1143,0.2268 v 0.258 h 1.888 z m -4.5195,0 h -1.486 l 0.08,-0.147 0.118,-0.153 0.161,-0.1653 0.209,-0.1837 0.3537,-0.305 0.2173,-0.213 0.1315,-0.167 0.0945,-0.167 0.057,-0.1675 0.019,-0.1685 -0.058,-0.3383 -0.174,-0.2507 -0.281,-0.1553 -0.381,-0.0517 -0.3565,0.0507 -0.2855,0.1523 -0.1975,0.238 -0.0925,0.308 0.374,0.035 0.057,-0.2035 0.119,-0.1525 0.1705,-0.0953 0.2115,-0.0317 0.2172,0.0332 0.1638,0.0998 0.1027,0.16 0.0343,0.214 -0.02,0.168 -0.06,0.15 -0.0923,0.137 -0.1167,0.131 -0.137,0.1272 -0.3148,0.2613 -0.1632,0.1445 -0.1595,0.158 -0.1525,0.176 -0.1368,0.1982 -0.1142,0.2268 v 0.258 h 1.888 z m 7.3904,0.2785 0.3118,-0.2895 0.189,-0.4725 0.063,-0.6455 -0.06,-0.6535 -0.18,-0.4705 -0.3053,-0.285 -0.4377,-0.095 -0.4485,0.094 -0.3095,0.282 -0.1793,0.4695 -0.0597,0.6585 0.0615,0.648 0.1845,0.472 0.3082,0.288 0.4308,0.096 z m -0.707,-0.275 -0.1922,-0.2175 -0.111,-0.3738 -0.037,-0.5412 0.0365,-0.5533 0.1095,-0.3717 0.194,-0.2115 0.288,-0.0705 0.28,0.0715 0.188,0.2145 0.1072,0.3727 0.0358,0.5483 -0.0375,0.5337 -0.1125,0.3753 -0.192,0.222 -0.278,0.074 z m -5.3772,-0.0848 0.0675,-0.3787 0.1125,-0.3745 0.1575,-0.3795 0.244,-0.456 0.372,-0.602 v -0.297 h -1.884 v 0.311 h 1.531 l -0.4645,0.7497 -0.3095,0.6573 -0.1732,0.5955 -0.0578,0.5665 h 0.382 z m 8.8717,0.0813 h -0.696 v -2.569 h -0.337 l -0.677,0.487 v 0.345 l 0.646,-0.483 v 2.22 h -0.729 v 0.311 h 1.793 z m 28.5529,0.3983 0.3415,-0.1335 0.281,-0.217 0.209,-0.295 0.1298,-0.362 0.0432,-0.418 -0.099,-0.5987 -0.297,-0.4443 -0.4783,-0.2752 -0.6447,-0.0918 h -0.948 v 2.88 h 1.072 z m -1.0745,-0.2665 v -2.258 h 0.551 l 0.4885,0.0705 0.3575,0.2115 0.219,0.3448 0.073,0.4722 -0.032,0.3333 -0.096,0.2857 -0.156,0.2313 -0.212,0.1697 -0.258,0.1043 -0.296,0.0347 z m -9.483,1.8747 0.753,-1.5637 -0.753,-1.5637 -1.692,-0.3861 -1.3569,1.082 v 1.7356 l 1.3569,1.0821 z m -45.7149,-3.0429 h -0.396 v 0.448 h 0.396 z m 22.9999,0.8994 h -0.396 v 0.448 h 0.396 z m 33.0835,4.268797 h -1.486 l 0.08,-0.147 0.118,-0.153 0.161,-0.1652 0.209,-0.1838 0.3538,-0.305 0.2172,-0.213 0.1315,-0.167 0.0945,-0.167 0.057,-0.167497 0.019,-0.1685 -0.058,-0.3382 -0.174,-0.2508 -0.281,-0.1552 -0.381,-0.0518 -0.3565,0.0508 -0.2855,0.1522 -0.1975,0.238 -0.0925,0.308 0.374,0.035 0.057,-0.2035 0.119,-0.1525 0.1705,-0.0952 0.2115,-0.0318 0.2173,0.0333 0.1637,0.0997 0.1028,0.16 0.0342,0.214 -0.02,0.167997 -0.06,0.15 -0.0922,0.137 -0.1168,0.131 -0.137,0.1273 -0.3147,0.2612 -0.1633,0.1445 -0.1595,0.158 -0.1525,0.176 -0.1367,0.1983 -0.1143,0.2267 v 0.258 h 1.888 z m 5.120003,0.3183 0.3055,-0.1703 0.1882,-0.273 0.0628,-0.363 -0.038,-0.2657 -0.114,-0.2173 -0.1823,-0.157 -0.2427,-0.083 v -0.008 l 0.21,-0.0815 0.16,-0.1505 0.102,-0.2017 0.034,-0.233297 -0.061,-0.3082 -0.183,-0.2368 -0.2875,-0.1515 -0.3765,-0.0505 -0.3693,0.0515 -0.2857,0.1545 -0.1823,0.2373 -0.0607,0.2997 0.0335,0.232997 0.1005,0.201 0.1592,0.1528 0.2078,0.0882 v 0.008 l -0.2268,0.0808 -0.1822,0.1582 -0.1193,0.219 -0.0397,0.265 0.0645,0.365 0.1935,0.271 0.3077,0.1672 0.4073,0.0558 z m -0.642,-1.704 -0.1665,-0.0983 -0.1035,-0.1615 -0.0345,-0.220497 0.0335,-0.2162 0.1005,-0.1548 0.1645,-0.093 0.2255,-0.031 0.396,0.1238 0.132,0.3712 -0.0335,0.233497 -0.1005,0.1585 -0.1645,0.0908 -0.2255,0.0302 z m -0.2178,1.3332 -0.1497,-0.4605 0.0387,-0.2357 0.1163,-0.1793 0.186,-0.1132 0.246,-0.0378 0.2522,0.0353 0.1888,0.1057 0.1185,0.174 0.0395,0.242 -0.0363,0.281 -0.1087,0.193 -0.183,0.1118 -0.259,0.0372 z m -7.037703,0.331 0.3118,-0.2895 0.189,-0.4725 0.063,-0.6455 -0.06,-0.653497 -0.18,-0.4705 -0.3053,-0.285 -0.4377,-0.095 -0.4485,0.094 -0.3095,0.282 -0.1793,0.4695 -0.0597,0.658497 0.0615,0.648 0.1845,0.472 0.3082,0.288 0.4308,0.096 z m -0.707,-0.275 -0.1922,-0.2175 -0.111,-0.3737 -0.037,-0.5413 0.0365,-0.553197 0.1095,-0.3718 0.194,-0.2115 0.288,-0.0705 0.28,0.0715 0.188,0.2145 0.1072,0.3728 0.0358,0.548197 -0.0375,0.5338 -0.1125,0.3752 -0.192,0.222 -0.278,0.074 z m -1.025,-0.004 h -0.696 v -2.568997 h -0.337 l -0.677,0.487 v 0.345 l 0.646,-0.483 v 2.219997 h -0.729 v 0.311 h 1.793 z m 7.584203,-0.361 h 0.402 v -0.288 h -0.402 v -1.919997 h -0.382 l -1.305003,1.923997 v 0.284 h 1.341003 v 0.672 h 0.346 z m -1.349003,-0.288 0.032,-0.04 0.109,-0.15 0.727,-1.076997 0.0325,-0.053 0.0862,-0.1552 0.0163,-0.0328 v 1.507997 z m 5.628803,0.9573 0.3197,-0.2003 0.201,-0.3175 0.067,-0.4165 -0.0625,-0.3705 -0.1875,-0.2935 -0.2917,-0.1912 -0.3773,-0.0638 -0.323,0.0458 -0.265,0.1372 0.054,-0.895997 h 1.287 v -0.311 h -1.62 l -0.095,1.528997 h 0.358 l 0.127,-0.0957 0.127,-0.0633 0.132,-0.0352 0.142,-0.0118 0.253,0.0435 0.195,0.1305 0.1253,0.2 0.0417,0.254 -0.0415,0.2893 -0.1245,0.2197 -0.197,0.1388 -0.261,0.0462 -0.3857,-0.1062 -0.2053,-0.3188 -0.369,0.043 0.1098,0.292 0.1992,0.214 0.2835,0.1313 0.3605,0.0437 z m -34.038303,2.7758 h -2.524 l 0.0831,-0.1608 0.112,-0.165 0.1409,-0.1692 0.1739,-0.1782 0.2097,-0.192 0.2454,-0.2058 0.4271,-0.3517 0.324,-0.2843 0.2209,-0.217 0.1554,-0.1839 0.1277,-0.1836 0.0999,-0.1835 0.0717,-0.1843 0.043,-0.185 0.0143,-0.1857 -0.0437,-0.3874 -0.131,-0.3237 -0.2183,-0.2599 -0.2989,-0.19 -0.374,-0.114 -0.4491,-0.038 -0.417,0.0379 -0.363,0.1137 -0.309,0.1894 -0.2427,0.2529 -0.164,0.3053 -0.0853,0.3578 0.627,0.058 0.0534,-0.2375 0.1004,-0.1994 0.1472,-0.1611 0.1868,-0.1183 0.2176,-0.071 0.2486,-0.0237 0.2577,0.0242 0.217,0.0727 0.1763,0.1211 0.13,0.1643 0.078,0.2037 0.026,0.243 -0.0151,0.1885 -0.0453,0.1746 -0.0756,0.1609 -0.0995,0.1518 -0.1183,0.1473 -0.1372,0.1429 -0.1526,0.1407 -0.1643,0.1406 -0.3587,0.2854 -0.1836,0.1526 -0.1848,0.1607 -0.1826,0.1706 -0.177,0.1836 -0.1714,0.1968 -0.1595,0.2131 -0.1423,0.234 -0.1252,0.2549 v 0.432 h 3.198 z m 27.6226,-3.2211 h -0.396 v 0.448 h 0.396 z m -25.4386,2.8931 h 1.289 l 0.323,0.849 h 0.397 l -1.138,-2.88 h -0.441 l -1.157,2.88 h 0.402 z m 0.117,-0.303 0.361,-0.944 0.0867,-0.2417 0.0803,-0.2503 0.054,0.169 0.0562,0.1688 0.4198,1.0982 z m -9.605,2.715697 0.753,-1.563697 -0.753,-1.5637 -1.692,-0.3861 -1.3569,1.082 v 1.735597 l 1.3569,1.082 z m 15.436,2.3993 0.325,-0.303 0.201,-0.492 0.067,-0.666 -0.0613,-0.6332 -0.1837,-0.4518 -0.3025,-0.2707 -0.4175,-0.0903 -0.398,0.0663 -0.3,0.1987 -0.1883,0.3135 -0.0627,0.4125 0.0575,0.4048 0.1725,0.3162 0.2692,0.204 0.3458,0.068 0.2245,-0.0275 0.2055,-0.0825 0.1672,-0.129 0.1098,-0.165 -0.049,0.4823 -0.131,0.3567 -0.2065,0.2205 -0.2775,0.0735 -0.3055,-0.0892 -0.1745,-0.2678 -0.349,0.055 0.1155,0.2715 0.1725,0.1845 0.2347,0.1058 0.3003,0.0352 z m -0.6203,-1.2582 -0.1777,-0.1418 -0.1133,-0.224 -0.0377,-0.292 0.0377,-0.286 0.1133,-0.22 0.1787,-0.141 0.2343,-0.047 0.238,0.0548 0.184,0.1642 0.1177,0.2543 0.0393,0.3247 -0.0195,0.1665 -0.0585,0.1475 -0.0915,0.1215 -0.1205,0.0905 -0.1408,0.0563 -0.1522,0.0187 z m 3.147,0.6232 h 0.402 v -0.288 h -0.402 v -1.92 h -0.382 l -1.305,1.924 v 0.284 h 1.341 v 0.672 h 0.346 z m -1.349,-0.288 0.032,-0.04 0.109,-0.15 0.727,-1.077 0.0325,-0.053 0.0863,-0.1552 0.0162,-0.0328 v 1.508 z m -3.1705,0.288 h 0.402 v -0.288 h -0.402 v -1.92 h -0.382 l -1.305,1.924 v 0.284 h 1.341 v 0.672 h 0.346 z m -1.349,-0.288 0.032,-0.04 0.109,-0.15 0.727,-1.077 0.0325,-0.053 0.0862,-0.1552 0.0163,-0.0328 v 1.508 z m -1.7157,0.649 h -0.696 v -2.569 h -0.337 l -0.677,0.487 v 0.345 l 0.646,-0.483 v 2.22 h -0.729 v 0.311 h 1.793 z m -3.2232,-0.0812 0.0675,-0.3788 0.1125,-0.3745 0.1575,-0.3795 0.244,-0.456 0.372,-0.602 v -0.297 h -1.884 v 0.311 h 1.531 l -0.4645,0.7498 -0.3095,0.6572 -0.1733,0.5955 -0.0577,0.5665 h 0.382 z m -1.2963,0.0812 h -0.696 v -2.569 h -0.337 l -0.677,0.487 v 0.345 l 0.646,-0.483 v 2.22 h -0.729 v 0.311 h 1.793 z m 5.4483,-0.137 h -0.396 v 0.448 h 0.396 z m 136.899333,48.320073 0.42,-0.2106 0.329,-0.3511 0.238,-0.4845 0.142,-0.6107 0.047,-0.7368 -0.045,-0.7469 -0.135,-0.614 -0.226,-0.481097 -0.32,-0.3456 -0.42,-0.2073 -0.52,-0.0692 -0.532,0.0684 -0.429,0.205 -0.323,0.3417 -0.225,0.478697 -0.135,0.6164 -0.046,0.7539 0.047,0.7404 0.139,0.612 0.232,0.4836 0.325,0.3488 0.417,0.2094 0.509,0.0697 z m -0.838,-0.4832 -0.268,-0.1573 -0.202,-0.2623 -0.14,-0.3754 -0.085,-0.497 -0.028,-0.6185 0.028,-0.6343 0.083,-0.5026 0.138,-0.3711 0.203,-0.255 0.274,-0.152997 0.345,-0.051 0.337,0.0517 0.267,0.155397 0.196,0.2589 0.135,0.3734 0.081,0.5003 0.027,0.6273 -0.028,0.6081 -0.085,0.4936 -0.142,0.3793 -0.202,0.2677 -0.267,0.1607 -0.333,0.0535 z m 5.391,0.5062 0.345,-0.1418 0.285,-0.2325 0.212,-0.3194 -0.317,-0.155 -0.377,0.4327 -0.528,0.1443 -0.421,-0.082 -0.325,-0.246 -0.206,-0.3818 -0.069,-0.4872 0.066,-0.4888 0.198,-0.3722 0.318,-0.2355 0.423,-0.0786 0.283,0.0333 0.241,0.0998 0.191,0.1615 0.13,0.2204 0.367,-0.1219 -0.184,-0.3088 -0.267,-0.2223 -0.344,-0.1342 -0.421,-0.0447 -0.583,0.099 -0.442,0.297 -0.277,0.472 -0.093,0.624 0.042,0.4349 0.123,0.373 0.204,0.3018 0.278,0.2233 0.346,0.1372 0.404,0.0457 z m -10.76,1.546897 0.753,-1.563697 -0.753,-1.5636 -1.692,-0.3862 -1.357,1.0821 v 1.7355 l 1.357,1.082097 z m 9.84,2.4436 0.306,-0.1702 0.188,-0.273 0.063,-0.3631 -0.038,-0.2657 -0.114,-0.2173 -0.182,-0.1569 -0.243,-0.083 v -0.008 l 0.21,-0.0815 0.16,-0.1504 0.102,-0.2018 0.034,-0.2332 -0.061,-0.3083 -0.183,-0.2367 -0.288,-0.1515 -0.376,-0.0505 -0.369,0.0515 -0.286,0.1545 -0.182,0.2372 -0.061,0.2998 0.033,0.233 0.101,0.2009 0.159,0.1528 0.208,0.0883 v 0.008 l -0.227,0.0807 -0.182,0.1583 -0.119,0.2189 -0.04,0.265 0.064,0.3651 0.194,0.2709 0.308,0.1673 0.407,0.0557 z m -0.642,-1.704 -0.166,-0.0983 -0.104,-0.1615 -0.034,-0.2204 0.033,-0.2163 0.101,-0.1547 0.164,-0.093 0.226,-0.0311 0.396,0.1238 0.132,0.3713 -0.034,0.2334 -0.1,0.1586 -0.165,0.0907 -0.225,0.0303 z m -0.217,1.3333 -0.15,-0.4605 0.039,-0.2358 0.116,-0.1793 0.186,-0.1132 0.246,-0.0378 0.252,0.0353 0.189,0.1058 0.118,0.1739 0.04,0.2421 -0.036,0.281 -0.109,0.193 -0.183,0.1117 -0.259,0.0373 z m 4.777,0.0525 h -1.486 l 0.08,-0.147 0.118,-0.153 0.161,-0.1653 0.209,-0.1837 0.353,-0.3051 0.218,-0.213 0.131,-0.1669 0.095,-0.1671 0.057,-0.1674 0.019,-0.1685 -0.058,-0.3383 -0.174,-0.2508 -0.281,-0.1552 -0.381,-0.0517 -0.357,0.0507 -0.285,0.1522 -0.198,0.2381 -0.092,0.308 0.374,0.035 0.057,-0.2035 0.119,-0.1525 0.17,-0.0953 0.212,-0.0317 0.217,0.0332 0.164,0.0998 0.102,0.16 0.035,0.214 -0.02,0.168 -0.06,0.15 -0.093,0.1369 -0.116,0.1311 -0.137,0.1272 -0.315,0.2612 -0.163,0.1445 -0.16,0.1581 -0.152,0.1759 -0.137,0.1983 -0.114,0.2268 v 0.2579 h 1.888 z m -6.602,-0.0813 0.067,-0.3788 0.113,-0.3744 0.157,-0.3795 0.244,-0.456 0.372,-0.602 v -0.297 h -1.884 v 0.311 h 1.531 l -0.464,0.7497 -0.31,0.6573 -0.173,0.5954 -0.058,0.5665 h 0.382 z m -1.297,0.0813 h -0.696 v -2.569 h -0.337 l -0.677,0.487 v 0.345 l 0.646,-0.483 v 2.22 h -0.729 v 0.3109 h 1.793 z m 9.605,0.3082 0.319,-0.2002 0.201,-0.3175 0.067,-0.4166 -0.062,-0.3704 -0.188,-0.2936 -0.291,-0.1912 -0.378,-0.0637 -0.323,0.0457 -0.265,0.1373 0.054,-0.896 h 1.287 v -0.311 h -1.62 l -0.095,1.5289 h 0.358 l 0.127,-0.0957 0.127,-0.0632 0.132,-0.0353 0.142,-0.0117 0.253,0.0435 0.195,0.1305 0.126,0.1999 0.041,0.2541 -0.041,0.2892 -0.125,0.2197 -0.197,0.1388 -0.261,0.0463 -0.385,-0.1063 -0.206,-0.3187 -0.369,0.043 0.11,0.2919 0.199,0.2141 0.284,0.1312 0.36,0.0437 z m 2.499,-0.6693 h 0.402 v -0.2879 h -0.402 v -1.92 h -0.382 l -1.305,1.924 v 0.2839 h 1.341 v 0.672 h 0.346 z m -1.349,-0.2879 0.032,-0.0401 0.109,-0.1499 0.727,-1.077 0.033,-0.0531 0.086,-0.1552 0.016,-0.0327 v 1.508 z m -5.306,0.5119 h -0.396 v 0.448 h 0.396 z" />
</svg>
